<?xml version="1.0" standalone="no"?>
<!DOCTYPE svg PUBLIC "-//W3C//DTD SVG 1.1//EN" "http://www.w3.org/Graphics/SVG/1.1/DTD/svg11.dtd" >
<svg xmlns="http://www.w3.org/2000/svg" xmlns:xlink="http://www.w3.org/1999/xlink" version="1.1">
<metadata>
Created by FontForge 20201107 at Thu Oct  6 18:59:20 2022
 By 
Copyright (c) 2022 easyJet Airline Company Limited. All rights reserved.
</metadata>
<defs>
<font id="easyJetHeadline" horiz-adv-x="388" >
  <font-face 
    font-family="easyJet Headline"
    font-weight="400"
    font-stretch="normal"
    units-per-em="1000"
    panose-1="2 0 0 0 0 0 0 0 0 0"
    ascent="800"
    descent="-200"
    x-height="657"
    cap-height="657"
    bbox="-124 -256 930 786"
    underline-thickness="50"
    underline-position="-100"
    unicode-range="U+000D-FB02"
  />
<missing-glyph horiz-adv-x="185" 
 />
    <glyph glyph-name=".notdef" horiz-adv-x="185" 
 />
    <glyph glyph-name=".null" horiz-adv-x="0" 
 />
    <glyph glyph-name=".null" horiz-adv-x="0" 
 />
    <glyph glyph-name="nonmarkingreturn" unicode="&#xd;" horiz-adv-x="155" 
 />
    <glyph glyph-name="space" unicode=" " horiz-adv-x="155" 
 />
    <glyph glyph-name="exclam" unicode="!" horiz-adv-x="169" 
d="M50 194l-20 278v185h109v-185l-20 -278h-69zM34 0v101h101v-101h-101z" />
    <glyph glyph-name="quotedbl" unicode="&#x22;" horiz-adv-x="295" 
d="M40 418l-5 239h91l-5 -239h-81zM174 418l-5 239h91l-5 -239h-81z" />
    <glyph glyph-name="numbersign" unicode="#" horiz-adv-x="436" 
d="M67 0l19 160h-51v69h60l15 128h-55v69h63l20 161h80l-20 -161h72l20 161h80l-20 -161h51v-69h-59l-15 -128h54v-69h-63l-19 -160h-80l19 160h-72l-19 -160h-80zM175 229h72l15 128h-72z" />
    <glyph glyph-name="dollar" unicode="$" horiz-adv-x="390" 
d="M175 -59v59q-70 6 -105 52t-35 120v25h106v-25q0 -76 58 -76q53 0 53 59q0 31 -16 55t-39.5 45.5t-51.5 43.5t-51.5 50t-39.5 63.5t-16 84.5q0 63 35 108.5t102 53.5v41h57v-43q57 -11 88.5 -52.5t31.5 -107.5v-20h-101v20q0 32 -13 49.5t-39 17.5q-30 0 -42 -16t-12 -48
q0 -26 15.5 -48.5t39 -45t50.5 -46t50.5 -52t39 -63.5t15.5 -80q0 -60 -31.5 -104.5t-91.5 -56.5v-63h-57z" />
    <glyph glyph-name="percent" unicode="%" horiz-adv-x="678" 
d="M158 322q-60 0 -91.5 34.5t-31.5 105.5v64q0 71 31.5 105.5t91.5 34.5t91.5 -35t31.5 -105v-64q0 -70 -31.5 -105t-91.5 -35zM131 0l330 657h87l-330 -657h-87zM158 394q19 0 29.5 12t10.5 40v96q0 28 -10.5 40t-29.5 12t-29.5 -12t-10.5 -40v-96q0 -28 10.5 -40
t29.5 -12zM520 -9q-60 0 -91.5 34.5t-31.5 105.5v64q0 71 31.5 105.5t91.5 34.5t91.5 -35t31.5 -105v-64q0 -70 -31.5 -105t-91.5 -35zM520 63q19 0 29.5 12t10.5 40v96q0 28 -10.5 40t-29.5 12t-29.5 -12t-10.5 -40v-96q0 -28 10.5 -40t29.5 -12z" />
    <glyph glyph-name="ampersand" unicode="&#x26;" horiz-adv-x="440" 
d="M181 -9q-72 0 -114 43.5t-42 116.5q0 53 21.5 102.5t61.5 98.5q-16 28 -26 50t-16 41t-8 36.5t-2 35.5q0 35 10 63t27.5 47.5t40.5 30t49 10.5q52 0 84.5 -34t32.5 -88q0 -31 -18 -84.5t-68 -113.5l79 -147q19 40 35 89h88q-16 -50 -33 -93t-37 -78q15 -15 31.5 -22.5
t29.5 -7.5h13v-87h-22q-31 0 -57.5 8.5t-51.5 31.5q-48 -49 -108 -49zM175 416q29 40 38.5 71t9.5 54q0 22 -12 36.5t-30 14.5q-17 0 -30 -12.5t-13 -41.5q0 -27 8.5 -56.5t28.5 -65.5zM185 88q14 0 26 4.5t26 18.5l-82 153q-14 -22 -23 -50.5t-9 -54.5q0 -32 15 -51.5
t47 -19.5z" />
    <glyph glyph-name="quotesingle" unicode="'" horiz-adv-x="161" 
d="M40 418l-5 239h91l-5 -239h-81z" />
    <glyph glyph-name="parenleft" unicode="(" horiz-adv-x="250" 
d="M147 -80q-22 35 -42.5 78t-36 91t-24.5 100t-9 104q0 53 9 105t24.5 99.5t36 90.5t42.5 78h83q-47 -69 -72 -166.5t-25 -206.5q0 -108 25 -206t72 -167h-83z" />
    <glyph glyph-name="parenright" unicode=")" horiz-adv-x="250" 
d="M20 -80q47 69 72 167t25 206q0 109 -25 206.5t-72 166.5h83q23 -35 43 -78t35.5 -90.5t24.5 -99.5t9 -105q0 -52 -9 -104t-24.5 -100t-35.5 -91t-43 -78h-83z" />
    <glyph glyph-name="asterisk" unicode="*" horiz-adv-x="385" 
d="M132 322l-60 38l74 107l-111 37l24 66l103 -44l-4 131h70l-9 -133l107 45l24 -66l-115 -37l77 -106l-60 -38l-60 106z" />
    <glyph glyph-name="plus" unicode="+" horiz-adv-x="455" 
d="M183 30v149h-148v87h148v149h87v-149h150v-87h-150v-149h-87z" />
    <glyph glyph-name="comma" unicode="," horiz-adv-x="176" 
d="M102 -80h-50l25 80h-42v111h106v-111z" />
    <glyph glyph-name="hyphen" unicode="-" horiz-adv-x="265" 
d="M15 219v87h235v-87h-235z" />
    <glyph glyph-name="period" unicode="." horiz-adv-x="176" 
d="M35 0v111h106v-111h-106z" />
    <glyph glyph-name="slash" unicode="/" horiz-adv-x="177" 
d="M0 0l100 657h77l-100 -657h-77z" />
    <glyph glyph-name="zero" unicode="0" horiz-adv-x="354" 
d="M177 -10q-75 0 -113.5 42.5t-38.5 130.5v330q0 88 38.5 130.5t113.5 42.5q74 0 113 -43t39 -130v-330q0 -87 -39 -130t-113 -43zM177 79q23 0 36.5 15t13.5 49v370q0 34 -13.5 49t-36.5 15t-36.5 -15t-13.5 -49v-370q0 -34 13.5 -49t36.5 -15z" />
    <glyph glyph-name="one" unicode="1" horiz-adv-x="208" 
d="M79 0v524h-74v60q37 9 70 32.5t49 49.5h54v-666h-99z" />
    <glyph glyph-name="two" unicode="2" horiz-adv-x="343" 
d="M20 0v28q0 35 15 72.5t37 77t48.5 81t48.5 83t37 84t15 83.5q0 34 -13.5 51t-36.5 17t-36 -13.5t-13 -43.5v-49h-95v49q0 29 8.5 55t26.5 46.5t45 32.5t64 12q66 0 109 -38.5t43 -118.5q0 -42 -14 -86t-35 -87t-45.5 -82.5t-45.5 -72t-35 -56t-14 -34.5h176v-91h-290z
" />
    <glyph glyph-name="three" unicode="3" horiz-adv-x="349" 
d="M172 -10q-147 0 -147 173v21h97v-41q0 -34 13.5 -49t36.5 -15t36.5 15t13.5 49v78q0 45 -19.5 63t-50.5 18h-22v86h22q29 0 48.5 19.5t19.5 57.5v53q0 32 -13 46.5t-35 14.5t-35 -14.5t-13 -46.5v-32h-94v15q0 165 142 165q70 0 106.5 -41.5t36.5 -123.5v-11
q0 -62 -18 -94.5t-50 -49.5q35 -13 56 -49.5t21 -97.5v-36q0 -87 -39 -130t-113 -43z" />
    <glyph glyph-name="four" unicode="4" horiz-adv-x="355" 
d="M192 0v152h-182v85l181 420h97v-420h57v-85h-57v-152h-96zM92 237h100v245z" />
    <glyph glyph-name="five" unicode="5" horiz-adv-x="341" 
d="M164 -10q-37 0 -64 12t-45 32.5t-26.5 47t-8.5 54.5v45h95v-45q0 -34 13 -45.5t36 -11.5t36.5 15t13.5 49v161q0 34 -13 49t-36 15q-17 0 -31.5 -10t-22.5 -42h-83l13 341h253v-91h-174l-6 -154q20 26 40 36.5t49 10.5q57 0 85 -38.5t28 -103.5v-156q0 -88 -38.5 -129.5
t-113.5 -41.5z" />
    <glyph glyph-name="six" unicode="6" horiz-adv-x="354" 
d="M177 -10q-75 0 -113.5 42.5t-38.5 130.5v331q0 88 38.5 130t113.5 42q37 0 63.5 -12t44 -32.5t25.5 -46.5t8 -55v-29h-95v29q0 30 -11.5 43.5t-34.5 13.5t-36.5 -15t-13.5 -49v-153q20 26 40 35.5t49 9.5q57 0 85 -33.5t28 -98.5v-110q0 -87 -39 -130t-113 -43zM177 79
q23 0 36.5 15t13.5 49v109q0 34 -13.5 49t-36.5 15t-36.5 -15t-13.5 -49v-109q0 -34 13.5 -49t36.5 -15z" />
    <glyph glyph-name="seven" unicode="7" horiz-adv-x="289" 
d="M54 0l128 565h-177v92h279v-63l-129 -594h-101z" />
    <glyph glyph-name="eight" unicode="8" horiz-adv-x="354" 
d="M177 -9q-75 0 -113.5 42.5t-38.5 130.5v35q0 111 63 150q-55 39 -55 141v11q0 83 36.5 124t107.5 41q70 0 106.5 -41.5t36.5 -123.5v-11q0 -102 -56 -141q65 -40 65 -150v-35q0 -87 -39 -130t-113 -43zM177 395q22 0 35 14.5t13 46.5v62q0 32 -13 46.5t-35 14.5
t-35 -14.5t-13 -46.5v-62q0 -32 13 -46.5t35 -14.5zM177 80q23 0 36.5 15t13.5 49v89q0 34 -13.5 49t-36.5 15t-36.5 -15t-13.5 -49v-89q0 -34 13.5 -49t36.5 -15z" />
    <glyph glyph-name="nine" unicode="9" horiz-adv-x="354" 
d="M177 -9q-37 0 -63.5 12t-43.5 32.5t-25.5 47t-8.5 54.5v45h95v-45q0 -34 11.5 -45.5t34.5 -11.5t36.5 15t13.5 49v164q-20 -26 -40 -35.5t-49 -9.5q-57 0 -85 33.5t-28 98.5v98q0 88 39 130.5t113 42.5q75 0 113.5 -42.5t38.5 -130.5v-331q0 -88 -38.5 -129.5
t-113.5 -41.5zM177 352q23 0 36.5 15t13.5 49v97q0 34 -13.5 49t-36.5 15t-36.5 -15t-13.5 -49v-97q0 -34 13.5 -49t36.5 -15z" />
    <glyph glyph-name="colon" unicode=":" horiz-adv-x="176" 
d="M35 339v111h106v-111h-106zM35 0v111h106v-111h-106z" />
    <glyph glyph-name="semicolon" unicode=";" horiz-adv-x="176" 
d="M35 339v111h106v-111h-106zM102 -80h-50l25 80h-42v111h106v-111z" />
    <glyph glyph-name="less" unicode="&#x3c;" horiz-adv-x="404" 
d="M369 10l-334 193v45l333 192v-88l-222 -127l223 -126v-89z" />
    <glyph glyph-name="equal" unicode="=" horiz-adv-x="455" 
d="M35 252v87h385v-87h-385zM35 102v87h385v-87h-385z" />
    <glyph glyph-name="greater" unicode="&#x3e;" horiz-adv-x="404" 
d="M35 10v89l223 126l-222 127v88l333 -192v-45z" />
    <glyph glyph-name="question" unicode="?" horiz-adv-x="311" 
d="M91 192v58q0 51 14.5 91t32 72.5t32 59.5t14.5 51v15q0 22 -9.5 33t-32.5 11t-35 -15.5t-12 -41.5v-31h-85v31q0 29 8.5 54t25 44.5t41.5 30.5t57 11q72 0 108 -38t36 -93v-16q0 -35 -17.5 -64t-39 -59.5t-39 -67t-17.5 -87.5v-49h-82zM79 0v101h101v-101h-101z" />
    <glyph glyph-name="at" unicode="@" horiz-adv-x="688" 
d="M360 -9q-66 0 -125.5 26.5t-103.5 72t-70 106.5t-26 130t23.5 131t65.5 108.5t101 73.5t129 27q67 0 122 -21.5t94.5 -59.5t61 -90t21.5 -112q0 -50 -18 -94.5t-47 -78.5t-65.5 -53.5t-73.5 -19.5q-20 0 -33 11t-13 33q-22 -26 -47.5 -36t-55.5 -10q-63 0 -98 45.5
t-35 123.5q0 36 12.5 73t36 66t57 47.5t76.5 18.5q35 0 60.5 -13t39.5 -33l8 30h77l-54 -243q-2 -8 -3 -15.5t-1 -14.5q0 -8 4 -10.5t6 -2.5q17 0 35 12.5t32.5 36t24 56t9.5 71.5q0 47 -16.5 87t-47.5 69t-73.5 45.5t-95.5 16.5q-56 0 -102.5 -22t-79.5 -59.5t-51.5 -87.5
t-18.5 -106t20.5 -105.5t55.5 -86t82 -58t100 -21.5q54 0 105 17.5t90 62.5l43 -34q-50 -57 -110 -83.5t-128 -26.5zM316 209q29 0 49.5 13t33 34t18.5 47t6 52q0 35 -16.5 59.5t-57.5 24.5q-23 0 -42 -12t-32 -32t-20 -45t-7 -52q0 -36 15.5 -62.5t52.5 -26.5z" />
    <glyph glyph-name="A" unicode="A" horiz-adv-x="362" 
d="M0 0l120 657h122l120 -657h-101l-22 149h-113l-22 -149h-104zM140 243h85l-43 283z" />
    <glyph glyph-name="B" unicode="B" horiz-adv-x="386" 
d="M30 0v657h155q88 0 129 -46t40 -128q-1 -48 -19 -85t-54 -53q38 -19 61.5 -55.5t23.5 -105.5q0 -89 -43.5 -136.5t-124.5 -47.5h-168zM137 388h38q31 0 51.5 21t20.5 67q0 42 -17 65t-55 23h-38v-176zM137 93h45q36 0 56.5 22.5t20.5 78.5q0 48 -19.5 74.5t-64.5 26.5
h-38v-202z" />
    <glyph glyph-name="C" unicode="C" horiz-adv-x="369" 
d="M189 -10q-40 0 -70.5 13t-51.5 35.5t-31.5 53t-10.5 64.5v345q0 35 10.5 65t31.5 52.5t51.5 35.5t70.5 13t70 -14.5t50 -39t30 -57.5t10 -71v-45h-107v51q0 32 -13.5 55t-39.5 23q-31 0 -44 -17.5t-13 -50.5v-345q0 -33 13 -50.5t44 -17.5t42 19.5t11 58.5v66h107v-58
q0 -81 -40 -132.5t-120 -51.5z" />
    <glyph glyph-name="D" unicode="D" horiz-adv-x="384" 
d="M30 0v657h155q88 0 131.5 -46t42.5 -128v-299q0 -89 -46 -136.5t-127 -47.5h-156zM137 93h38q36 0 57 22.5t21 78.5v282q0 42 -17.5 65t-55.5 23h-43v-471z" />
    <glyph glyph-name="E" unicode="E" horiz-adv-x="334" 
d="M30 0v657h284v-97h-177v-171h151v-98h-151v-195h182v-96h-289z" />
    <glyph glyph-name="F" unicode="F" horiz-adv-x="331" 
d="M30 0v657h296v-97h-189v-168h151v-98h-151v-294h-107z" />
    <glyph glyph-name="G" unicode="G" horiz-adv-x="379" 
d="M189 -9q-80 0 -122 45.5t-42 120.5v343q0 36 10.5 66t31 52.5t50.5 35t69 12.5q40 0 69.5 -14.5t49.5 -39t30 -57.5t10 -71v-35h-103v51q0 68 -55 68q-29 0 -42 -16t-13 -52v-334q0 -40 13 -58.5t44 -18.5t43.5 18t12.5 60v124h-67v98h171v-389h-69v45q-12 -26 -34.5 -40
t-56.5 -14z" />
    <glyph glyph-name="H" unicode="H" 
d="M30 0v657h107v-268h114v268h107v-657h-107v291h-114v-291h-107z" />
    <glyph glyph-name="I" unicode="I" horiz-adv-x="167" 
d="M30 0v657h107v-657h-107z" />
    <glyph glyph-name="J" unicode="J" horiz-adv-x="213" 
d="M10 -18v96h9q24 0 36 16.5t12 68.5v494h106v-505q0 -75 -34 -122.5t-109 -47.5h-20z" />
    <glyph glyph-name="K" unicode="K" horiz-adv-x="372" 
d="M30 0v657h107v-253l115 253h106l-121 -266l135 -391h-107l-95 277l-33 -60v-217h-107z" />
    <glyph glyph-name="L" unicode="L" horiz-adv-x="312" 
d="M30 0v657h107v-561h170v-96h-277z" />
    <glyph glyph-name="M" unicode="M" horiz-adv-x="502" 
d="M30 0v657h138l83 -403l83 403h138v-657h-100v453l-93 -453h-56l-93 453v-453h-100z" />
    <glyph glyph-name="N" unicode="N" 
d="M30 0v657h104l129 -366v366h95v-657h-92l-141 402v-402h-95z" />
    <glyph glyph-name="O" unicode="O" horiz-adv-x="378" 
d="M189 -9q-40 0 -70.5 13t-51.5 35.5t-31.5 53t-10.5 64.5v343q0 35 10.5 65t31.5 52.5t51.5 35.5t70.5 13t70.5 -13t51.5 -35.5t31.5 -52.5t10.5 -65v-343q0 -34 -10.5 -64.5t-31.5 -53t-51.5 -35.5t-70.5 -13zM189 89q31 0 44 18t13 50v343q0 32 -13 50t-44 18t-44 -17.5
t-13 -50.5v-343q0 -33 13 -50.5t44 -17.5z" />
    <glyph glyph-name="P" unicode="P" horiz-adv-x="387" 
d="M30 0v657h153q96 0 145 -46t49 -151t-45.5 -150.5t-141.5 -45.5h-53v-264h-107zM137 357h44q49 0 70 22.5t21 80.5q0 62 -22 83.5t-72 21.5h-41v-208z" />
    <glyph glyph-name="Q" unicode="Q" horiz-adv-x="378" 
d="M305 -53l-43 57q-29 -13 -73 -13q-40 0 -70.5 13t-51.5 35.5t-31.5 53t-10.5 64.5v343q0 35 10.5 65t31.5 52.5t51.5 35.5t70.5 13t70.5 -13t51.5 -35.5t31.5 -52.5t10.5 -65v-343q0 -32 -9 -61t-27 -52l42 -56zM197 89l-30 39l54 41l24 -31q1 5 1 9v10v343q0 32 -13 50
t-44 18t-44 -17.5t-13 -50.5v-343q0 -33 13 -50.5t44 -17.5h8z" />
    <glyph glyph-name="R" unicode="R" horiz-adv-x="380" 
d="M30 0v657h151q50 0 84 -13.5t55.5 -39t31 -62t9.5 -81.5q0 -25 -3.5 -50.5t-12.5 -47.5t-24 -39t-38 -26l92 -298h-107l-78 269h-53v-269h-107zM137 361h39q41 0 60.5 22.5t19.5 79.5q0 32 -6 52t-18 31t-29 15t-39 4h-27v-204z" />
    <glyph glyph-name="S" unicode="S" horiz-adv-x="345" 
d="M171 -9q-80 0 -119.5 48t-39.5 128v26h107v-26q0 -78 57 -78q27 0 40 15.5t13 44.5q0 32 -16 56.5t-39.5 47t-51.5 45t-51.5 51t-39.5 65t-16 86.5q0 35 10.5 65t31 52.5t50.5 35.5t69 13q73 0 113.5 -45.5t40.5 -120.5v-21h-102v21q0 32 -13 50t-39 18q-29 0 -41 -16.5
t-12 -48.5q0 -27 15.5 -50t39 -46t50.5 -47.5t50.5 -53.5t39 -65t15.5 -82q0 -34 -10.5 -65t-31 -53.5t-50.5 -36t-70 -13.5z" />
    <glyph glyph-name="T" unicode="T" horiz-adv-x="320" 
d="M107 0v561h-102v96h310v-96h-101v-561h-107z" />
    <glyph glyph-name="U" unicode="U" 
d="M194 -9q-40 0 -70.5 13t-51.5 35.5t-31.5 53t-10.5 64.5v500h107v-500q0 -33 13 -50.5t44 -17.5t44 18t13 50v500h107v-500q0 -34 -10.5 -64.5t-31.5 -53t-51.5 -35.5t-70.5 -13z" />
    <glyph glyph-name="V" unicode="V" horiz-adv-x="362" 
d="M129 0l-129 657h107l77 -465l75 465h103l-129 -657h-104z" />
    <glyph glyph-name="W" unicode="W" horiz-adv-x="555" 
d="M111 0l-111 657h100l62 -422l74 422h86l78 -423l53 423h102l-104 -657h-95l-77 458l-74 -458h-94z" />
    <glyph glyph-name="X" unicode="X" horiz-adv-x="362" 
d="M5 0l121 341l-112 316h104l63 -208l63 208h104l-112 -316l121 -341h-104l-72 233l-72 -233h-104z" />
    <glyph glyph-name="Y" unicode="Y" horiz-adv-x="360" 
d="M126 0v264l-126 393h107l75 -271l71 271h107l-127 -396v-261h-107z" />
    <glyph glyph-name="Z" unicode="Z" horiz-adv-x="323" 
d="M10 0v97l197 463h-178v97h284v-97l-197 -463h194v-97h-300z" />
    <glyph glyph-name="bracketleft" unicode="[" horiz-adv-x="253" 
d="M50 -80v812h178v-87h-71v-639h71v-86h-178z" />
    <glyph glyph-name="backslash" unicode="\" horiz-adv-x="177" 
d="M100 0l-100 657h77l100 -657h-77z" />
    <glyph glyph-name="bracketright" unicode="]" horiz-adv-x="253" 
d="M25 -80v86h71v639h-71v87h178v-812h-178z" />
    <glyph glyph-name="asciicircum" unicode="^" horiz-adv-x="430" 
d="M0 323l193 334h45l192 -333h-88l-127 222l-126 -223h-89z" />
    <glyph glyph-name="underscore" unicode="_" horiz-adv-x="442" 
d="M0 -198v87h442v-87h-442z" />
    <glyph glyph-name="grave" unicode="`" horiz-adv-x="161" 
d="M83 550l-83 55h88l73 -55h-78z" />
    <glyph glyph-name="a" unicode="a" horiz-adv-x="362" 
d="M0 0l120 657h122l120 -657h-101l-22 149h-113l-22 -149h-104zM140 243h85l-43 283z" />
    <glyph glyph-name="b" unicode="b" horiz-adv-x="401" 
d="M40 0v657h155q88 0 129 -46t40 -128q-1 -48 -19 -85t-54 -53q38 -19 61.5 -55.5t23.5 -105.5q0 -89 -43.5 -136.5t-124.5 -47.5h-168zM147 388h38q31 0 51.5 21t20.5 67q0 42 -17 65t-55 23h-38v-176zM147 93h45q36 0 56.5 22.5t20.5 78.5q0 48 -19.5 74.5t-64.5 26.5
h-38v-202z" />
    <glyph glyph-name="c" unicode="c" horiz-adv-x="374" 
d="M189 -9q-40 0 -70.5 13t-51.5 35.5t-31.5 53t-10.5 64.5v343q0 35 10.5 65t31.5 52.5t51.5 35.5t70.5 13t70 -14.5t50 -39t30 -57.5t10 -71v-45h-107v51q0 32 -13.5 55t-39.5 23q-31 0 -44 -17.5t-13 -50.5v-343q0 -33 13 -50.5t44 -17.5t42 19.5t11 58.5v66h107v-58
q0 -81 -40 -132.5t-120 -51.5z" />
    <glyph glyph-name="d" unicode="d" horiz-adv-x="384" 
d="M30 0v657h155q88 0 131.5 -46t42.5 -128v-299q0 -89 -46 -136.5t-127 -47.5h-156zM137 93h38q36 0 57 22.5t21 78.5v282q0 42 -17.5 65t-55.5 23h-43v-471z" />
    <glyph glyph-name="e" unicode="e" horiz-adv-x="329" 
d="M30 0v657h284v-97h-177v-171h151v-98h-151v-195h182v-96h-289z" />
    <glyph glyph-name="f" unicode="f" horiz-adv-x="331" 
d="M30 0v657h296v-97h-189v-168h151v-98h-151v-294h-107z" />
    <glyph glyph-name="g" unicode="g" horiz-adv-x="379" 
d="M189 -9q-80 0 -122 45.5t-42 120.5v343q0 36 10.5 66t31 52.5t50.5 35t69 12.5q40 0 69.5 -14.5t49.5 -39t30 -57.5t10 -71v-35h-103v51q0 68 -55 68q-29 0 -42 -16t-13 -52v-334q0 -40 13 -58.5t44 -18.5t43.5 18t12.5 60v124h-67v98h171v-389h-69v45q-12 -26 -34.5 -40
t-56.5 -14z" />
    <glyph glyph-name="h" unicode="h" 
d="M30 0v657h107v-268h114v268h107v-657h-107v291h-114v-291h-107z" />
    <glyph glyph-name="i" unicode="i" horiz-adv-x="167" 
d="M30 0v657h107v-657h-107z" />
    <glyph glyph-name="j" unicode="j" horiz-adv-x="213" 
d="M10 -18v96h9q24 0 36 16.5t12 68.5v494h106v-505q0 -75 -34 -122.5t-109 -47.5h-20z" />
    <glyph glyph-name="k" unicode="k" horiz-adv-x="382" 
d="M40 0v657h107v-253l115 253h106l-121 -266l135 -391h-107l-95 277l-33 -60v-217h-107z" />
    <glyph glyph-name="l" unicode="l" horiz-adv-x="312" 
d="M30 0v657h107v-561h170v-96h-277z" />
    <glyph glyph-name="m" unicode="m" horiz-adv-x="502" 
d="M30 0v657h138l83 -403l83 403h138v-657h-100v453l-93 -453h-56l-93 453v-453h-100z" />
    <glyph glyph-name="n" unicode="n" 
d="M30 0v657h104l129 -366v366h95v-657h-92l-141 402v-402h-95z" />
    <glyph glyph-name="o" unicode="o" horiz-adv-x="378" 
d="M189 -10q-40 0 -70.5 13t-51.5 36t-31.5 53.5t-10.5 64.5v343q0 35 10.5 65t31.5 53t51.5 36t70.5 13t70.5 -13t51.5 -36t31.5 -53t10.5 -65v-343q0 -34 -10.5 -64.5t-31.5 -53.5t-51.5 -36t-70.5 -13zM189 89q31 0 44 18t13 50v343q0 32 -13 50t-44 18t-44 -17.5
t-13 -50.5v-343q0 -33 13 -50.5t44 -17.5z" />
    <glyph glyph-name="p" unicode="p" horiz-adv-x="387" 
d="M30 0v657h153q96 0 145 -46t49 -151t-45.5 -150.5t-141.5 -45.5h-53v-264h-107zM137 357h44q49 0 70 22.5t21 80.5q0 62 -22 83.5t-72 21.5h-41v-208z" />
    <glyph glyph-name="q" unicode="q" horiz-adv-x="378" 
d="M305 -53l-43 57q-29 -13 -73 -13q-40 0 -70.5 13t-51.5 35.5t-31.5 53t-10.5 64.5v343q0 35 10.5 65t31.5 52.5t51.5 35.5t70.5 13t70.5 -13t51.5 -35.5t31.5 -52.5t10.5 -65v-343q0 -32 -9 -61t-27 -52l42 -56zM197 89l-30 39l54 41l24 -31q1 5 1 9v10v343q0 32 -13 50
t-44 18t-44 -17.5t-13 -50.5v-343q0 -33 13 -50.5t44 -17.5h8z" />
    <glyph glyph-name="r" unicode="r" horiz-adv-x="375" 
d="M30 0v657h151q50 0 84 -13.5t55.5 -39t31 -62t9.5 -81.5q0 -25 -3.5 -50.5t-12.5 -47.5t-24 -39t-38 -26l92 -298h-107l-78 269h-53v-269h-107zM137 361h39q41 0 60.5 22.5t19.5 79.5q0 32 -6 52t-18 31t-29 15t-39 4h-27v-204z" />
    <glyph glyph-name="s" unicode="s" horiz-adv-x="345" 
d="M171 -9q-80 0 -119.5 48t-39.5 128v26h107v-26q0 -78 57 -78q27 0 40 15.5t13 44.5q0 32 -16 56.5t-39.5 47t-51.5 45t-51.5 51t-39.5 65t-16 86.5q0 35 10.5 65t31 52.5t50.5 35.5t69 13q73 0 113.5 -45.5t40.5 -120.5v-21h-102v21q0 32 -13 50t-39 18q-29 0 -41 -16.5
t-12 -48.5q0 -27 15.5 -50t39 -46t50.5 -47.5t50.5 -53.5t39 -65t15.5 -82q0 -34 -10.5 -65t-31 -53.5t-50.5 -36t-70 -13.5z" />
    <glyph glyph-name="t" unicode="t" horiz-adv-x="320" 
d="M107 0v561h-102v96h310v-96h-101v-561h-107z" />
    <glyph glyph-name="u" unicode="u" 
d="M194 -9q-40 0 -70.5 13t-51.5 35.5t-31.5 53t-10.5 64.5v500h107v-500q0 -33 13 -50.5t44 -17.5t44 18t13 50v500h107v-500q0 -34 -10.5 -64.5t-31.5 -53t-51.5 -35.5t-70.5 -13z" />
    <glyph glyph-name="v" unicode="v" horiz-adv-x="362" 
d="M129 0l-129 657h107l77 -465l75 465h103l-129 -657h-104z" />
    <glyph glyph-name="w" unicode="w" horiz-adv-x="555" 
d="M111 0l-111 657h100l62 -422l74 422h86l78 -423l53 423h102l-104 -657h-95l-77 458l-74 -458h-94z" />
    <glyph glyph-name="x" unicode="x" horiz-adv-x="362" 
d="M5 0l121 341l-112 316h104l63 -208l63 208h104l-112 -316l121 -341h-104l-72 233l-72 -233h-104z" />
    <glyph glyph-name="y" unicode="y" horiz-adv-x="360" 
d="M126 0v264l-126 393h107l75 -271l71 271h107l-127 -396v-261h-107z" />
    <glyph glyph-name="z" unicode="z" horiz-adv-x="323" 
d="M10 0v97l197 463h-178v97h284v-97l-197 -463h194v-97h-300z" />
    <glyph glyph-name="braceleft" unicode="{" horiz-adv-x="278" 
d="M178 -80q-51 0 -71.5 22t-20.5 65v215q0 25 -10 35.5t-26 10.5h-15v50h15q16 0 26 11t10 35v215q0 43 20.5 65t71.5 22h65v-44h-41q-16 0 -22.5 -11t-6.5 -28v-181q0 -43 -17.5 -74t-58.5 -35q41 -4 58.5 -35t17.5 -74v-181q0 -17 6.5 -28t22.5 -11h41v-44h-65z" />
    <glyph glyph-name="bar" unicode="|" horiz-adv-x="247" 
d="M75 -80v780h97v-780h-97z" />
    <glyph glyph-name="braceright" unicode="}" horiz-adv-x="278" 
d="M35 -80v44h41q16 0 22.5 11t6.5 28v181q0 43 17.5 74t58.5 35q-41 4 -58.5 35t-17.5 74v181q0 17 -6.5 28t-22.5 11h-41v44h65q51 0 71.5 -22t20.5 -65v-215q0 -24 10 -35t26 -11h15v-50h-15q-16 0 -26 -10.5t-10 -35.5v-215q0 -43 -20.5 -65t-71.5 -22h-65z" />
    <glyph glyph-name="asciitilde" unicode="~" horiz-adv-x="374" 
d="M0 290q5 15 12 27.5t20 22.5t33.5 15.5t50.5 5.5q23 0 42.5 -3t38 -7t36.5 -7t38 -3q37 0 51 20h52q-4 -16 -11.5 -29t-20 -22.5t-33 -14.5t-51.5 -5q-38 0 -76.5 10.5t-78.5 10.5q-15 0 -30 -5.5t-21 -15.5h-52z" />
    <glyph glyph-name="uni00A0" unicode="&#xa0;" horiz-adv-x="155" 
 />
    <glyph glyph-name="exclamdown" unicode="&#xa1;" horiz-adv-x="169" 
d="M34 556v101h101v-101h-101zM30 0v185l20 278h69l20 -278v-185h-109z" />
    <glyph glyph-name="cent" unicode="&#xa2;" horiz-adv-x="419" 
d="M182 0v68q-65 11 -98.5 56t-33.5 108v213q0 62 33.5 107.5t98.5 55.5v49h63v-49q32 -5 56 -21t40.5 -40t24.5 -54.5t8 -63.5v-25h-105v34q0 32 -13.5 56t-41.5 24q-32 0 -45.5 -18.5t-13.5 -51.5v-219q0 -33 13.5 -51.5t45.5 -18.5t43.5 20.5t11.5 59.5v49h105v-38
q0 -73 -32.5 -122.5t-96.5 -59.5v-68h-63z" />
    <glyph glyph-name="sterling" unicode="&#xa3;" horiz-adv-x="358" 
d="M31 0v79q33 44 47.5 96t16.5 116h-70v76h57q-11 32 -24.5 63.5t-13.5 67.5q0 82 37 124.5t107 42.5q142 0 142 -165v-15h-94v32q0 32 -13 46.5t-35 14.5t-35 -18.5t-13 -50.5q0 -36 13 -70t23 -72h81v-76h-72q-1 -60 -14 -107.5t-35 -91.5h197v-92h-302z" />
    <glyph glyph-name="yen" unicode="&#xa5;" horiz-adv-x="365" 
d="M126 0v114h-106v87h106v63h-106v87h78l-98 306h107l75 -271l71 271h107l-99 -306h84v-87h-112v-63h112v-87h-112v-114h-107z" />
    <glyph glyph-name="section" unicode="&#xa7;" horiz-adv-x="304" 
d="M152 -9q-81 0 -116.5 43t-35.5 137v315q0 94 35.5 137t116.5 43q32 1 57.5 -10t44 -30.5t28.5 -46.5t10 -58v-41h-95v34q0 32 -10.5 47.5t-34.5 15.5q-50 0 -50 -63v-371q0 -63 50 -63t50 63v109q0 32 -12.5 47.5t-32.5 15.5q-7 0 -14 -3t-15 -8v81q12 10 26.5 14.5
t35.5 4.5q47 0 80.5 -31t33.5 -104v-78q0 -104 -35.5 -152t-116.5 -48z" />
    <glyph glyph-name="dieresis" unicode="&#xa8;" horiz-adv-x="240" 
d="M0 550v55h95v-55h-95zM145 550v55h95v-55h-95z" />
    <glyph glyph-name="copyright" unicode="&#xa9;" horiz-adv-x="745" 
d="M372 -9q-70 0 -131.5 26.5t-107 72t-72 107t-26.5 131.5t26.5 131.5t72 107.5t107 72.5t131.5 26.5t131.5 -26.5t107.5 -72.5t72.5 -107.5t26.5 -131.5t-26.5 -131.5t-72.5 -107t-107.5 -72t-131.5 -26.5zM372 41q60 0 112.5 22.5t91.5 61.5t61.5 91t22.5 112
t-22.5 112.5t-61.5 91.5t-91.5 61.5t-112.5 22.5t-112 -22.5t-91 -61.5t-61.5 -91.5t-22.5 -112.5t22.5 -112t61.5 -91t91 -61.5t112 -22.5zM371 96q-55 0 -86 33t-31 81v236q0 48 31 81t86 33t82.5 -36.5t27.5 -88.5v-31h-74v35q0 22 -9 38t-27 16q-21 0 -30 -12t-9 -35
v-236q0 -23 9 -35t30 -12t28.5 13.5t7.5 40.5v45h74v-40q0 -56 -27.5 -91t-82.5 -35z" />
    <glyph glyph-name="ordfeminine" unicode="&#xaa;" horiz-adv-x="364" 
d="M182 -9q-32 -1 -57.5 10t-43.5 30.5t-28 46.5t-10 58v41h93v-34q0 -63 46 -63q50 0 50 63v371q0 63 -50 63t-50 -63v-109q0 -32 12.5 -47.5t32.5 -15.5q15 0 29 11v-81q-12 -10 -26.5 -14.5t-35.5 -4.5q-47 0 -80.5 31t-33.5 104v78q0 104 35.5 152t116.5 48t116.5 -43
t35.5 -137v-315q0 -94 -35.5 -137t-116.5 -43z" />
    <glyph glyph-name="guillemotleft" unicode="&#xab;" horiz-adv-x="416" 
d="M208 10l-173 193v46l172 192v-118l-91 -98l92 -99v-116zM381 10l-173 193v46l172 192v-118l-91 -98l92 -99v-116z" />
    <glyph glyph-name="logicalnot" unicode="&#xac;" horiz-adv-x="209" 
d="M54 339v111h106v-111h-106z" />
    <glyph glyph-name="registered" unicode="&#xae;" horiz-adv-x="382" 
d="M30 0v657h150q90 0 136 -44.5t46 -149.5q0 -39 -6.5 -67.5t-17.5 -48t-24 -31.5t-27 -18l90 -298h-108l-102 362h8q44 0 61.5 21t17.5 80t-17.5 80t-61.5 21h-38v-564h-107z" />
    <glyph glyph-name="macron" unicode="&#xaf;" horiz-adv-x="180" 
d="M0 550v55h180v-55h-180z" />
    <glyph glyph-name="degree" unicode="&#xb0;" horiz-adv-x="348" 
d="M174 387q-29 0 -54.5 11t-44 29.5t-29.5 44t-11 54.5t11 54.5t29.5 44t44 29.5t54.5 11t54.5 -11t44 -29.5t29.5 -44t11 -54.5t-11 -54.5t-29.5 -44t-44 -29.5t-54.5 -11zM174 447q32 0 53.5 23.5t21.5 55.5t-21.5 55.5t-53.5 23.5t-53.5 -23.5t-21.5 -55.5t21.5 -55.5
t53.5 -23.5z" />
    <glyph glyph-name="plusminus" unicode="&#xb1;" horiz-adv-x="455" 
d="M183 120v109h-148v87h148v149h87v-149h150v-87h-150v-109h-87zM35 0v87h385v-87h-385z" />
    <glyph glyph-name="acute" unicode="&#xb4;" horiz-adv-x="161" 
d="M0 550l73 55h88l-83 -55h-78z" />
    <glyph glyph-name="uni00B5" unicode="&#xb5;" horiz-adv-x="209" 
d="M54 339v111h106v-111h-106z" />
    <glyph glyph-name="paragraph" unicode="&#xb6;" horiz-adv-x="451" 
d="M222 0v264q-96 0 -141.5 45.5t-45.5 150.5t49 151t145 46h187v-657h-67v595h-60v-595h-67z" />
    <glyph glyph-name="periodcentered" unicode="&#xb7;" horiz-adv-x="304" 
d="M152 -9q-32 -1 -57.5 10t-43.5 30.5t-28 46.5t-10 58v41h93v-34q0 -63 46 -63q50 0 50 63v371q0 63 -50 63t-50 -63v-109q0 -32 12.5 -47.5t32.5 -15.5q15 0 29 11v-81q-12 -10 -26.5 -14.5t-35.5 -4.5q-47 0 -80.5 31t-33.5 104v78q0 104 35.5 152t116.5 48t116.5 -43
t35.5 -137v-315q0 -94 -35.5 -137t-116.5 -43z" />
    <glyph glyph-name="cedilla" unicode="&#xb8;" horiz-adv-x="135" 
d="M36 -200q-21 0 -36 3l11 47q57 0 57 37q0 14 -10.5 25t-34.5 13v79h41v-45q33 -5 52 -26t19 -50q0 -35 -28.5 -59t-70.5 -24z" />
    <glyph glyph-name="ordmasculine" unicode="&#xba;" horiz-adv-x="276" 
d="M138 360q-51 0 -77 29t-26 71v106q0 42 26 71t77 29t77 -29t26 -71v-106q0 -42 -26 -71t-77 -29zM138 418q11 0 19.5 6t8.5 27v124q0 21 -8.5 27t-19.5 6t-19.5 -6t-8.5 -27v-124q0 -21 8.5 -27t19.5 -6z" />
    <glyph glyph-name="guillemotright" unicode="&#xbb;" horiz-adv-x="416" 
d="M35 10v116l92 99l-91 98v118l172 -192v-46zM208 10v116l92 99l-91 98v118l172 -192v-46z" />
    <glyph glyph-name="questiondown" unicode="&#xbf;" horiz-adv-x="306" 
d="M126 556v101h101v-101h-101zM164 -9q-72 0 -108 38t-36 93v16q0 35 17.5 64t39 59.5t39 67t17.5 87.5v49h82v-58q0 -51 -14.5 -91t-32 -72.5t-32 -59.5t-14.5 -51v-15q0 -22 9.5 -33t32.5 -11t35 15.5t12 41.5v31h85v-31q0 -28 -8.5 -53.5t-25 -45t-41.5 -30.5t-57 -11z
" />
    <glyph glyph-name="Agrave" unicode="&#xc0;" horiz-adv-x="362" 
d="M158 677l-83 55h88l73 -55h-78zM0 0l120 657h122l120 -657h-101l-22 149h-113l-22 -149h-104zM140 243h85l-43 283z" />
    <glyph glyph-name="Aacute" unicode="&#xc1;" horiz-adv-x="362" 
d="M114 677l73 55h88l-83 -55h-78zM0 0l120 657h122l120 -657h-101l-22 149h-113l-22 -149h-104zM140 243h85l-43 283z" />
    <glyph glyph-name="Acircumflex" unicode="&#xc2;" horiz-adv-x="390" 
d="M40 0v657h150q90 0 136 -44.5t46 -149.5q0 -39 -6.5 -67.5t-17.5 -48t-24 -31.5t-27 -18l90 -298h-108l-102 362h8q44 0 61.5 21t17.5 80t-17.5 80t-61.5 21h-38v-564h-107z" />
    <glyph glyph-name="Atilde" unicode="&#xc3;" horiz-adv-x="362" 
d="M52 677q6 23 22 39t58 16q31 0 55 -8t51 -8q25 0 35 16h36q-6 -25 -21.5 -40t-58.5 -15q-26 0 -52.5 8t-53.5 8q-11 0 -21 -4t-14 -12h-36zM0 0l120 657h122l120 -657h-101l-22 149h-113l-22 -149h-104zM140 243h85l-43 283z" />
    <glyph glyph-name="Adieresis" unicode="&#xc4;" horiz-adv-x="362" 
d="M62 677v55h95v-55h-95zM207 677v55h95v-55h-95zM0 0l120 657h122l120 -657h-101l-22 149h-113l-22 -149h-104zM140 243h85l-43 283z" />
    <glyph glyph-name="Aring" unicode="&#xc5;" horiz-adv-x="362" 
d="M0 0l120 657h122l120 -657h-101l-79 526l-78 -526h-104z" />
    <glyph glyph-name="AE" unicode="&#xc6;" horiz-adv-x="564" 
d="M0 0l260 657h284v-97h-157v-171h131v-98h-131v-195h162v-96h-269v150h-108l-52 -150h-120zM204 243h76v217z" />
    <glyph glyph-name="Ccedilla" unicode="&#xc7;" horiz-adv-x="384" 
d="M181 -200q-21 0 -36 3l11 47q57 0 57 37q0 14 -10.5 25t-34.5 13v67q-35 3 -61.5 17.5t-44.5 36.5t-27.5 50.5t-9.5 60.5v343q0 35 10.5 65t31.5 52.5t51.5 35.5t70.5 13t70 -14.5t50 -39t30 -57.5t10 -71v-45h-107v51q0 32 -13.5 55t-39.5 23q-31 0 -44 -17.5t-13 -50.5
v-343q0 -33 13 -50.5t44 -17.5t42 19.5t11 58.5v66h107v-58q0 -76 -35.5 -126t-104.5 -57v-33q33 -5 52 -26t19 -50q0 -35 -28.5 -59t-70.5 -24z" />
    <glyph glyph-name="Egrave" unicode="&#xc8;" horiz-adv-x="334" 
d="M156 677l-83 55h88l73 -55h-78zM30 0v657h284v-97h-177v-171h151v-98h-151v-195h182v-96h-289z" />
    <glyph glyph-name="Eacute" unicode="&#xc9;" horiz-adv-x="334" 
d="M83 677l73 55h88l-83 -55h-78zM30 0v657h284v-97h-177v-171h151v-98h-151v-195h182v-96h-289z" />
    <glyph glyph-name="Ecircumflex" unicode="&#xca;" horiz-adv-x="334" 
d="M39 677l73 55h102l73 -55h-78l-46 30l-46 -30h-78zM30 0v657h284v-97h-177v-171h151v-98h-151v-195h182v-96h-289z" />
    <glyph glyph-name="Edieresis" unicode="&#xcb;" horiz-adv-x="334" 
d="M51 677v55h95v-55h-95zM196 677v55h95v-55h-95zM30 0v657h284v-97h-177v-171h151v-98h-151v-195h182v-96h-289z" />
    <glyph glyph-name="Igrave" unicode="&#xcc;" horiz-adv-x="167" 
d="M59 677l-83 55h88l73 -55h-78zM30 0v657h107v-657h-107z" />
    <glyph glyph-name="Iacute" unicode="&#xcd;" horiz-adv-x="167" 
d="M30 677l73 55h88l-83 -55h-78zM30 0v657h107v-657h-107z" />
    <glyph glyph-name="Icircumflex" unicode="&#xce;" horiz-adv-x="167" 
d="M-41 677l74 55h102l73 -55h-78l-46 30l-46 -30h-79zM30 0v657h107v-657h-107z" />
    <glyph glyph-name="Idieresis" unicode="&#xcf;" horiz-adv-x="167" 
d="M-37 677v55h96v-55h-96zM109 677v55h95v-55h-95zM30 0v657h107v-657h-107z" />
    <glyph glyph-name="Eth" unicode="&#xd0;" horiz-adv-x="394" 
d="M40 0v295h-40v87h40v275h155q88 0 131.5 -46t42.5 -128v-299q0 -89 -46 -136.5t-127 -47.5h-156zM147 93h38q36 0 57 22.5t21 78.5v282q0 42 -17.5 65t-55.5 23h-43v-182h51v-87h-51v-202z" />
    <glyph glyph-name="Ntilde" unicode="&#xd1;" 
d="M65 677q6 23 22 39t58 16q31 0 55 -8t51 -8q25 0 35 16h36q-6 -25 -21.5 -40t-58.5 -15q-26 0 -52.5 8t-53.5 8q-11 0 -21 -4t-14 -12h-36zM30 0v657h104l129 -366v366h95v-657h-92l-141 402v-402h-95z" />
    <glyph glyph-name="Ograve" unicode="&#xd2;" horiz-adv-x="378" 
d="M171 677l-83 55h88l73 -55h-78zM189 -9q-40 0 -70.5 13t-51.5 35.5t-31.5 53t-10.5 64.5v343q0 35 10.5 65t31.5 52.5t51.5 35.5t70.5 13t70.5 -13t51.5 -35.5t31.5 -52.5t10.5 -65v-343q0 -34 -10.5 -64.5t-31.5 -53t-51.5 -35.5t-70.5 -13zM189 89q31 0 44 18t13 50
v343q0 32 -13 50t-44 18t-44 -17.5t-13 -50.5v-343q0 -33 13 -50.5t44 -17.5z" />
    <glyph glyph-name="Oacute" unicode="&#xd3;" horiz-adv-x="378" 
d="M118 677l73 55h88l-83 -55h-78zM189 -9q-40 0 -70.5 13t-51.5 35.5t-31.5 53t-10.5 64.5v343q0 35 10.5 65t31.5 52.5t51.5 35.5t70.5 13t70.5 -13t51.5 -35.5t31.5 -52.5t10.5 -65v-343q0 -34 -10.5 -64.5t-31.5 -53t-51.5 -35.5t-70.5 -13zM189 89q31 0 44 18t13 50
v343q0 32 -13 50t-44 18t-44 -17.5t-13 -50.5v-343q0 -33 13 -50.5t44 -17.5z" />
    <glyph glyph-name="Ocircumflex" unicode="&#xd4;" horiz-adv-x="378" 
d="M65 677l73 55h102l73 -55h-78l-46 30l-46 -30h-78zM189 -9q-40 0 -70.5 13t-51.5 35.5t-31.5 53t-10.5 64.5v343q0 35 10.5 65t31.5 52.5t51.5 35.5t70.5 13t70.5 -13t51.5 -35.5t31.5 -52.5t10.5 -65v-343q0 -34 -10.5 -64.5t-31.5 -53t-51.5 -35.5t-70.5 -13zM189 89
q31 0 44 18t13 50v343q0 32 -13 50t-44 18t-44 -17.5t-13 -50.5v-343q0 -33 13 -50.5t44 -17.5z" />
    <glyph glyph-name="Otilde" unicode="&#xd5;" horiz-adv-x="378" 
d="M60 677q6 23 22 39t58 16q31 0 55 -8t51 -8q25 0 35 16h36q-6 -25 -21.5 -40t-58.5 -15q-26 0 -52.5 8t-53.5 8q-11 0 -21 -4t-14 -12h-36zM189 -9q-40 0 -70.5 13t-51.5 35.5t-31.5 53t-10.5 64.5v343q0 35 10.5 65t31.5 52.5t51.5 35.5t70.5 13t70.5 -13t51.5 -35.5
t31.5 -52.5t10.5 -65v-343q0 -34 -10.5 -64.5t-31.5 -53t-51.5 -35.5t-70.5 -13zM189 89q31 0 44 18t13 50v343q0 32 -13 50t-44 18t-44 -17.5t-13 -50.5v-343q0 -33 13 -50.5t44 -17.5z" />
    <glyph glyph-name="Odieresis" unicode="&#xd6;" horiz-adv-x="378" 
d="M69 677v55h95v-55h-95zM214 677v55h95v-55h-95zM189 -9q-40 0 -70.5 13t-51.5 35.5t-31.5 53t-10.5 64.5v343q0 35 10.5 65t31.5 52.5t51.5 35.5t70.5 13t70.5 -13t51.5 -35.5t31.5 -52.5t10.5 -65v-343q0 -34 -10.5 -64.5t-31.5 -53t-51.5 -35.5t-70.5 -13zM189 89
q31 0 44 18t13 50v343q0 32 -13 50t-44 18t-44 -17.5t-13 -50.5v-343q0 -33 13 -50.5t44 -17.5z" />
    <glyph glyph-name="multiply" unicode="&#xd7;" horiz-adv-x="405" 
d="M308 55l-106 106l-105 -105l-62 61l105 106l-104 104l61 62l105 -105l105 106l62 -62l-105 -105l106 -106z" />
    <glyph glyph-name="Oslash" unicode="&#xd8;" horiz-adv-x="378" 
d="M189 -9q-59 0 -99 28l-8 -19h-57l25 61q-25 40 -25 96v343q0 35 10.5 65t31.5 52.5t51.5 35.5t70.5 13q30 0 54.5 -7.5t44.5 -21.5l8 20h57l-26 -62q26 -41 26 -95v-343q0 -34 -10.5 -64.5t-31.5 -53t-51.5 -35.5t-70.5 -13zM132 259l111 269q-11 40 -54 40
q-31 0 -44 -17.5t-13 -50.5v-241zM189 89q31 0 44 18t13 50v240l-111 -269q9 -39 54 -39z" />
    <glyph glyph-name="Ugrave" unicode="&#xd9;" 
d="M176 677l-83 55h88l73 -55h-78zM194 -9q-40 0 -70.5 13t-51.5 35.5t-31.5 53t-10.5 64.5v500h107v-500q0 -33 13 -50.5t44 -17.5t44 18t13 50v500h107v-500q0 -34 -10.5 -64.5t-31.5 -53t-51.5 -35.5t-70.5 -13z" />
    <glyph glyph-name="Uacute" unicode="&#xda;" 
d="M133 677l73 55h88l-83 -55h-78zM194 -9q-40 0 -70.5 13t-51.5 35.5t-31.5 53t-10.5 64.5v500h107v-500q0 -33 13 -50.5t44 -17.5t44 18t13 50v500h107v-500q0 -34 -10.5 -64.5t-31.5 -53t-51.5 -35.5t-70.5 -13z" />
    <glyph glyph-name="Ucircumflex" unicode="&#xdb;" 
d="M70 677l73 55h102l73 -55h-78l-46 30l-46 -30h-78zM194 -9q-40 0 -70.5 13t-51.5 35.5t-31.5 53t-10.5 64.5v500h107v-500q0 -33 13 -50.5t44 -17.5t44 18t13 50v500h107v-500q0 -34 -10.5 -64.5t-31.5 -53t-51.5 -35.5t-70.5 -13z" />
    <glyph glyph-name="Udieresis" unicode="&#xdc;" 
d="M74 677v55h95v-55h-95zM219 677v55h95v-55h-95zM194 -9q-40 0 -70.5 13t-51.5 35.5t-31.5 53t-10.5 64.5v500h107v-500q0 -33 13 -50.5t44 -17.5t44 18t13 50v500h107v-500q0 -34 -10.5 -64.5t-31.5 -53t-51.5 -35.5t-70.5 -13z" />
    <glyph glyph-name="Yacute" unicode="&#xdd;" horiz-adv-x="360" 
d="M119 677l73 55h88l-83 -55h-78zM126 0v264l-126 393h107l75 -271l71 271h107l-127 -396v-261h-107z" />
    <glyph glyph-name="agrave" unicode="&#xe0;" horiz-adv-x="362" 
d="M158 677l-83 55h88l73 -55h-78zM0 0l120 657h122l120 -657h-101l-22 149h-113l-22 -149h-104zM140 243h85l-43 283z" />
    <glyph glyph-name="aacute" unicode="&#xe1;" horiz-adv-x="362" 
d="M127 677l73 55h88l-83 -55h-78zM0 0l120 657h122l120 -657h-101l-79 526l-78 -526h-104z" />
    <glyph glyph-name="acircumflex" unicode="&#xe2;" horiz-adv-x="362" 
d="M57 677l73 55h102l73 -55h-78l-46 30l-46 -30h-78zM0 0l120 657h122l120 -657h-101l-22 149h-113l-22 -149h-104zM140 243h85l-43 283z" />
    <glyph glyph-name="atilde" unicode="&#xe3;" horiz-adv-x="362" 
d="M52 677q6 23 22 39t58 16q31 0 55 -8t51 -8q25 0 35 16h36q-6 -25 -21.5 -40t-58.5 -15q-26 0 -52.5 8t-53.5 8q-11 0 -21 -4t-14 -12h-36zM0 0l120 657h122l120 -657h-101l-22 149h-113l-22 -149h-104zM140 243h85l-43 283z" />
    <glyph glyph-name="adieresis" unicode="&#xe4;" horiz-adv-x="362" 
d="M62 677v55h95v-55h-95zM207 677v55h95v-55h-95zM0 0l120 657h122l120 -657h-101l-22 149h-113l-22 -149h-104zM140 243h85l-43 283z" />
    <glyph glyph-name="aring" unicode="&#xe5;" horiz-adv-x="362" 
d="M0 0l120 657h122l120 -657h-101l-79 526l-78 -526h-104z" />
    <glyph glyph-name="ae" unicode="&#xe6;" horiz-adv-x="564" 
d="M0 0l260 657h284v-97h-157v-171h131v-98h-131v-195h162v-96h-269v150h-108l-52 -150h-120zM204 243h76v217z" />
    <glyph glyph-name="ccedilla" unicode="&#xe7;" horiz-adv-x="374" 
d="M181 -200q-21 0 -36 3l11 47q57 0 57 37q0 14 -10.5 25t-34.5 13v67q-35 3 -61.5 17.5t-44.5 36.5t-27.5 50.5t-9.5 60.5v343q0 35 10.5 65t31.5 52.5t51.5 35.5t70.5 13t70 -14.5t50 -39t30 -57.5t10 -71v-45h-107v51q0 32 -13.5 55t-39.5 23q-31 0 -44 -17.5t-13 -50.5
v-343q0 -33 13 -50.5t44 -17.5t42 19.5t11 58.5v66h107v-58q0 -76 -35.5 -126t-104.5 -57v-33q33 -5 52 -26t19 -50q0 -35 -28.5 -59t-70.5 -24z" />
    <glyph glyph-name="egrave" unicode="&#xe8;" horiz-adv-x="334" 
d="M164 677l-83 55h88l73 -55h-78zM30 0v657h284v-97h-177v-171h151v-98h-151v-195h182v-96h-289z" />
    <glyph glyph-name="eacute" unicode="&#xe9;" horiz-adv-x="334" 
d="M120 677l73 55h88l-83 -55h-78zM30 0v657h284v-97h-177v-171h151v-98h-151v-195h182v-96h-289z" />
    <glyph glyph-name="ecircumflex" unicode="&#xea;" horiz-adv-x="334" 
d="M45 677l73 55h102l73 -55h-78l-46 30l-46 -30h-78zM30 0v657h284v-97h-177v-171h151v-98h-151v-195h182v-96h-289z" />
    <glyph glyph-name="edieresis" unicode="&#xeb;" horiz-adv-x="334" 
d="M48 677v55h95v-55h-95zM193 677v55h95v-55h-95zM30 0v657h284v-97h-177v-171h151v-98h-151v-195h182v-96h-289z" />
    <glyph glyph-name="igrave" unicode="&#xec;" horiz-adv-x="167" 
d="M59 677l-83 55h88l73 -55h-78zM30 0v657h107v-657h-107z" />
    <glyph glyph-name="iacute" unicode="&#xed;" horiz-adv-x="167" 
d="M30 677l73 55h88l-83 -55h-78zM30 0v657h107v-657h-107z" />
    <glyph glyph-name="icircumflex" unicode="&#xee;" horiz-adv-x="167" 
d="M-41 677l74 55h102l73 -55h-78l-46 30l-46 -30h-79zM30 0v657h107v-657h-107z" />
    <glyph glyph-name="idieresis" unicode="&#xef;" horiz-adv-x="167" 
d="M-37 677v55h96v-55h-96zM109 677v55h95v-55h-95zM30 0v657h107v-657h-107z" />
    <glyph glyph-name="eth" unicode="&#xf0;" horiz-adv-x="394" 
d="M40 0v295h-40v87h40v275h155q88 0 131.5 -46t42.5 -128v-299q0 -89 -46 -136.5t-127 -47.5h-156zM147 93h38q36 0 57 22.5t21 78.5v282q0 42 -17.5 65t-55.5 23h-43v-182h51v-87h-51v-202z" />
    <glyph glyph-name="ntilde" unicode="&#xf1;" 
d="M65 677q6 23 22 39t58 16q31 0 55 -8t51 -8q25 0 35 16h36q-6 -25 -21.5 -40t-58.5 -15q-26 0 -52.5 8t-53.5 8q-11 0 -21 -4t-14 -12h-36zM30 0v657h104l129 -366v366h95v-657h-92l-141 402v-402h-95z" />
    <glyph glyph-name="ograve" unicode="&#xf2;" horiz-adv-x="378" 
d="M167 677l-83 55h88l73 -55h-78zM189 -9q-40 0 -70.5 13t-51.5 35.5t-31.5 53t-10.5 64.5v343q0 35 10.5 65t31.5 52.5t51.5 35.5t70.5 13t70.5 -13t51.5 -35.5t31.5 -52.5t10.5 -65v-343q0 -34 -10.5 -64.5t-31.5 -53t-51.5 -35.5t-70.5 -13zM189 89q31 0 44 18t13 50
v343q0 32 -13 50t-44 18t-44 -17.5t-13 -50.5v-343q0 -33 13 -50.5t44 -17.5z" />
    <glyph glyph-name="oacute" unicode="&#xf3;" horiz-adv-x="378" 
d="M119 677l73 55h88l-83 -55h-78zM189 -9q-40 0 -70.5 13t-51.5 35.5t-31.5 53t-10.5 64.5v343q0 35 10.5 65t31.5 52.5t51.5 35.5t70.5 13t70.5 -13t51.5 -35.5t31.5 -52.5t10.5 -65v-343q0 -34 -10.5 -64.5t-31.5 -53t-51.5 -35.5t-70.5 -13zM189 89q31 0 44 18t13 50
v343q0 32 -13 50t-44 18t-44 -17.5t-13 -50.5v-343q0 -33 13 -50.5t44 -17.5z" />
    <glyph glyph-name="ocircumflex" unicode="&#xf4;" horiz-adv-x="378" 
d="M65 677l73 55h102l73 -55h-78l-46 30l-46 -30h-78zM189 -9q-40 0 -70.5 13t-51.5 35.5t-31.5 53t-10.5 64.5v343q0 35 10.5 65t31.5 52.5t51.5 35.5t70.5 13t70.5 -13t51.5 -35.5t31.5 -52.5t10.5 -65v-343q0 -34 -10.5 -64.5t-31.5 -53t-51.5 -35.5t-70.5 -13zM189 89
q31 0 44 18t13 50v343q0 32 -13 50t-44 18t-44 -17.5t-13 -50.5v-343q0 -33 13 -50.5t44 -17.5z" />
    <glyph glyph-name="otilde" unicode="&#xf5;" horiz-adv-x="378" 
d="M60 677q6 23 22 39t58 16q31 0 55 -8t51 -8q25 0 35 16h36q-6 -25 -21.5 -40t-58.5 -15q-26 0 -52.5 8t-53.5 8q-11 0 -21 -4t-14 -12h-36zM189 -9q-40 0 -70.5 13t-51.5 35.5t-31.5 53t-10.5 64.5v343q0 35 10.5 65t31.5 52.5t51.5 35.5t70.5 13t70.5 -13t51.5 -35.5
t31.5 -52.5t10.5 -65v-343q0 -34 -10.5 -64.5t-31.5 -53t-51.5 -35.5t-70.5 -13zM189 89q31 0 44 18t13 50v343q0 32 -13 50t-44 18t-44 -17.5t-13 -50.5v-343q0 -33 13 -50.5t44 -17.5z" />
    <glyph glyph-name="odieresis" unicode="&#xf6;" horiz-adv-x="378" 
d="M69 677v55h95v-55h-95zM214 677v55h95v-55h-95zM189 -9q-40 0 -70.5 13t-51.5 35.5t-31.5 53t-10.5 64.5v343q0 35 10.5 65t31.5 52.5t51.5 35.5t70.5 13t70.5 -13t51.5 -35.5t31.5 -52.5t10.5 -65v-343q0 -34 -10.5 -64.5t-31.5 -53t-51.5 -35.5t-70.5 -13zM189 89
q31 0 44 18t13 50v343q0 32 -13 50t-44 18t-44 -17.5t-13 -50.5v-343q0 -33 13 -50.5t44 -17.5z" />
    <glyph glyph-name="divide" unicode="&#xf7;" horiz-adv-x="455" 
d="M174 337v111h106v-111h-106zM35 180v87h385v-87h-385zM174 -2v111h106v-111h-106z" />
    <glyph glyph-name="oslash" unicode="&#xf8;" horiz-adv-x="378" 
d="M189 -9q-59 0 -99 28l-8 -19h-57l25 61q-25 40 -25 96v343q0 35 10.5 65t31.5 52.5t51.5 35.5t70.5 13q30 0 54.5 -7.5t44.5 -21.5l8 20h57l-26 -62q26 -41 26 -95v-343q0 -34 -10.5 -64.5t-31.5 -53t-51.5 -35.5t-70.5 -13zM132 259l111 269q-11 40 -54 40
q-31 0 -44 -17.5t-13 -50.5v-241zM189 89q31 0 44 18t13 50v240l-111 -269q9 -39 54 -39z" />
    <glyph glyph-name="ugrave" unicode="&#xf9;" 
d="M163 677l-83 55h88l73 -55h-78zM194 -9q-40 0 -70.5 13t-51.5 35.5t-31.5 53t-10.5 64.5v500h107v-500q0 -33 13 -50.5t44 -17.5t44 18t13 50v500h107v-500q0 -34 -10.5 -64.5t-31.5 -53t-51.5 -35.5t-70.5 -13z" />
    <glyph glyph-name="uacute" unicode="&#xfa;" 
d="M125 677l73 55h88l-83 -55h-78zM194 -9q-40 0 -70.5 13t-51.5 35.5t-31.5 53t-10.5 64.5v500h107v-500q0 -33 13 -50.5t44 -17.5t44 18t13 50v500h107v-500q0 -34 -10.5 -64.5t-31.5 -53t-51.5 -35.5t-70.5 -13z" />
    <glyph glyph-name="ucircumflex" unicode="&#xfb;" 
d="M70 677l73 55h102l73 -55h-78l-46 30l-46 -30h-78zM194 -9q-40 0 -70.5 13t-51.5 35.5t-31.5 53t-10.5 64.5v500h107v-500q0 -33 13 -50.5t44 -17.5t44 18t13 50v500h107v-500q0 -34 -10.5 -64.5t-31.5 -53t-51.5 -35.5t-70.5 -13z" />
    <glyph glyph-name="udieresis" unicode="&#xfc;" 
d="M74 677v55h95v-55h-95zM219 677v55h95v-55h-95zM194 -9q-40 0 -70.5 13t-51.5 35.5t-31.5 53t-10.5 64.5v500h107v-500q0 -33 13 -50.5t44 -17.5t44 18t13 50v500h107v-500q0 -34 -10.5 -64.5t-31.5 -53t-51.5 -35.5t-70.5 -13z" />
    <glyph glyph-name="yacute" unicode="&#xfd;" horiz-adv-x="360" 
d="M119 677l73 55h88l-83 -55h-78zM126 0v264l-126 393h107l75 -271l71 271h107l-127 -396v-261h-107z" />
    <glyph glyph-name="ydieresis" unicode="&#xff;" horiz-adv-x="360" 
d="M62 677v55h95v-55h-95zM207 677v55h95v-55h-95zM126 0v264l-126 393h107l75 -271l71 271h107l-127 -396v-261h-107z" />
    <glyph glyph-name="Amacron" unicode="&#x100;" horiz-adv-x="362" 
d="M94 677v55h180v-55h-180zM0 0l120 657h122l120 -657h-101l-22 149h-113l-22 -149h-104zM140 243h85l-43 283z" />
    <glyph glyph-name="amacron" unicode="&#x101;" horiz-adv-x="362" 
d="M92 677v55h180v-55h-180zM0 0l120 657h122l120 -657h-101l-22 149h-113l-22 -149h-104zM140 243h85l-43 283z" />
    <glyph glyph-name="Abreve" unicode="&#x102;" horiz-adv-x="362" 
d="M181 677q-56 0 -83 16.5t-41 38.5h53q21 -18 71 -18q53 0 71 18h53q-14 -22 -41 -38.5t-83 -16.5zM0 0l120 657h122l120 -657h-101l-22 149h-113l-22 -149h-104zM140 243h85l-43 283z" />
    <glyph glyph-name="abreve" unicode="&#x103;" horiz-adv-x="362" 
d="M181 677q-56 0 -83 16.5t-41 38.5h53q21 -18 71 -18q53 0 71 18h53q-14 -22 -41 -38.5t-83 -16.5zM0 0l120 657h122l120 -657h-101l-22 149h-113l-22 -149h-104zM140 243h85l-43 283z" />
    <glyph glyph-name="Aogonek" unicode="&#x104;" horiz-adv-x="362" 
d="M341 -181q-30 0 -51 25t-21 62q0 24 7 47.5t15 46.5h-30l-22 149h-113l-22 -149h-104l120 657h122l120 -657h-30q-2 -11 -3 -22t-1 -22q0 -29 8 -50t26 -29v-53q-7 -5 -21 -5zM140 243h85l-43 283z" />
    <glyph glyph-name="aogonek" unicode="&#x105;" horiz-adv-x="362" 
d="M341 -181q-30 0 -51 25t-21 62q0 24 7 47.5t15 46.5h-30l-22 149h-113l-22 -149h-104l120 657h122l120 -657h-30q-2 -11 -3 -22t-1 -22q0 -29 8 -50t26 -29v-53q-7 -5 -21 -5zM140 243h85l-43 283z" />
    <glyph glyph-name="Cacute" unicode="&#x106;" horiz-adv-x="374" 
d="M117 677l73 55h88l-83 -55h-78zM189 -10q-40 0 -70.5 13t-51.5 35.5t-31.5 53t-10.5 64.5v345q0 35 10.5 65t31.5 52.5t51.5 35.5t70.5 13t70 -14.5t50 -39t30 -57.5t10 -71v-45h-107v51q0 32 -13.5 55t-39.5 23q-31 0 -44 -17.5t-13 -50.5v-345q0 -33 13 -50.5t44 -17.5
t42 19.5t11 58.5v66h107v-58q0 -81 -40 -132.5t-120 -51.5z" />
    <glyph glyph-name="cacute" unicode="&#x107;" horiz-adv-x="374" 
d="M117 677l73 55h88l-83 -55h-78zM189 -9q-40 0 -70.5 13t-51.5 35.5t-31.5 53t-10.5 64.5v343q0 35 10.5 65t31.5 52.5t51.5 35.5t70.5 13t70 -14.5t50 -39t30 -57.5t10 -71v-45h-107v51q0 32 -13.5 55t-39.5 23q-31 0 -44 -17.5t-13 -50.5v-343q0 -33 13 -50.5t44 -17.5
t42 19.5t11 58.5v66h107v-58q0 -81 -40 -132.5t-120 -51.5z" />
    <glyph glyph-name="Ccaron" unicode="&#x10c;" horiz-adv-x="374" 
d="M135 677l-73 55h78l46 -30l46 30h78l-73 -55h-102zM189 -10q-40 0 -70.5 13t-51.5 35.5t-31.5 53t-10.5 64.5v345q0 35 10.5 65t31.5 52.5t51.5 35.5t70.5 13t70 -14.5t50 -39t30 -57.5t10 -71v-45h-107v51q0 32 -13.5 55t-39.5 23q-31 0 -44 -17.5t-13 -50.5v-345
q0 -33 13 -50.5t44 -17.5t42 19.5t11 58.5v66h107v-58q0 -81 -40 -132.5t-120 -51.5z" />
    <glyph glyph-name="ccaron" unicode="&#x10d;" horiz-adv-x="374" 
d="M133 677l-73 55h78l46 -30l46 30h78l-73 -55h-102zM189 -10q-40 0 -70.5 13t-51.5 35.5t-31.5 53t-10.5 64.5v345q0 35 10.5 65t31.5 52.5t51.5 35.5t70.5 13t70 -14.5t50 -39t30 -57.5t10 -71v-45h-107v51q0 32 -13.5 55t-39.5 23q-31 0 -44 -17.5t-13 -50.5v-345
q0 -33 13 -50.5t44 -17.5t42 19.5t11 58.5v66h107v-58q0 -81 -40 -132.5t-120 -51.5z" />
    <glyph glyph-name="Dcaron" unicode="&#x10e;" horiz-adv-x="384" 
d="M139 677l-73 55h78l46 -30l46 30h78l-73 -55h-102zM30 0v657h155q88 0 131.5 -46t42.5 -128v-299q0 -89 -46 -136.5t-127 -47.5h-156zM137 93h38q36 0 57 22.5t21 78.5v282q0 42 -17.5 65t-55.5 23h-43v-471z" />
    <glyph glyph-name="dcaron" unicode="&#x10f;" horiz-adv-x="384" 
d="M139 677l-73 55h78l46 -30l46 30h78l-73 -55h-102zM30 0v657h155q88 0 131.5 -46t42.5 -128v-299q0 -89 -46 -136.5t-127 -47.5h-156zM137 93h38q36 0 57 22.5t21 78.5v282q0 42 -17.5 65t-55.5 23h-43v-471z" />
    <glyph glyph-name="Dcroat" unicode="&#x110;" horiz-adv-x="394" 
d="M40 0v295h-40v87h40v275h155q88 0 131.5 -46t42.5 -128v-299q0 -89 -46 -136.5t-127 -47.5h-156zM147 93h38q36 0 57 22.5t21 78.5v282q0 42 -17.5 65t-55.5 23h-43v-182h51v-87h-51v-202z" />
    <glyph glyph-name="dcroat" unicode="&#x111;" horiz-adv-x="424" 
d="M70 0v295h-40v87h40v275h155q88 0 131.5 -46t42.5 -128v-299q0 -89 -46 -136.5t-127 -47.5h-156zM177 93h38q36 0 57 22.5t21 78.5v282q0 42 -17.5 65t-55.5 23h-43v-182h51v-87h-51v-202z" />
    <glyph glyph-name="Emacron" unicode="&#x112;" horiz-adv-x="334" 
d="M81 677v55h180v-55h-180zM30 0v657h284v-97h-177v-171h151v-98h-151v-195h182v-96h-289z" />
    <glyph glyph-name="emacron" unicode="&#x113;" horiz-adv-x="334" 
d="M81 677v55h180v-55h-180zM30 0v657h284v-97h-177v-171h151v-98h-151v-195h182v-96h-289z" />
    <glyph glyph-name="Edotaccent" unicode="&#x116;" horiz-adv-x="334" 
d="M136 677v55h95v-55h-95zM30 0v657h284v-97h-177v-171h151v-98h-151v-195h182v-96h-289z" />
    <glyph glyph-name="edotaccent" unicode="&#x117;" horiz-adv-x="334" 
d="M136 677v55h95v-55h-95zM30 0v657h284v-97h-177v-171h151v-98h-151v-195h182v-96h-289z" />
    <glyph glyph-name="Eogonek" unicode="&#x118;" horiz-adv-x="334" 
d="M328 -181q-30 0 -51 25t-21 62q0 24 7 47.5t15 46.5h-248v657h284v-97h-177v-171h151v-98h-151v-195h182v-96q-2 -11 -3 -22t-1 -22q0 -29 8 -50t26 -29v-53q-7 -5 -21 -5z" />
    <glyph glyph-name="eogonek" unicode="&#x119;" horiz-adv-x="334" 
d="M328 -181q-30 0 -51 25t-21 62q0 24 7 47.5t15 46.5h-248v657h284v-97h-177v-171h151v-98h-151v-195h182v-96q-2 -11 -3 -22t-1 -22q0 -29 8 -50t26 -29v-53q-7 -5 -21 -5z" />
    <glyph glyph-name="Ecaron" unicode="&#x11a;" horiz-adv-x="334" 
d="M124 677l-73 55h78l46 -30l46 30h78l-73 -55h-102zM30 0v657h284v-97h-177v-171h151v-98h-151v-195h182v-96h-289z" />
    <glyph glyph-name="ecaron" unicode="&#x11b;" horiz-adv-x="334" 
d="M124 677l-73 55h78l46 -30l46 30h78l-73 -55h-102zM30 0v657h284v-97h-177v-171h151v-98h-151v-195h182v-96h-289z" />
    <glyph glyph-name="Gbreve" unicode="&#x11e;" horiz-adv-x="379" 
d="M189 677q-56 0 -83 16.5t-41 38.5h53q21 -18 71 -18q53 0 71 18h53q-14 -22 -41 -38.5t-83 -16.5zM189 -9q-80 0 -122 45.5t-42 120.5v343q0 36 10.5 66t31 52.5t50.5 35t69 12.5q40 0 69.5 -14.5t49.5 -39t30 -57.5t10 -71v-35h-103v51q0 68 -55 68q-29 0 -42 -16
t-13 -52v-334q0 -40 13 -58.5t44 -18.5t43.5 18t12.5 60v124h-67v98h171v-389h-69v45q-12 -26 -34.5 -40t-56.5 -14z" />
    <glyph glyph-name="gbreve" unicode="&#x11f;" horiz-adv-x="379" 
d="M189 677q-56 0 -83 16.5t-41 38.5h53q21 -18 71 -18q53 0 71 18h53q-14 -22 -41 -38.5t-83 -16.5zM189 -9q-80 0 -122 45.5t-42 120.5v343q0 36 10.5 66t31 52.5t50.5 35t69 12.5q40 0 69.5 -14.5t49.5 -39t30 -57.5t10 -71v-35h-103v51q0 68 -55 68q-29 0 -42 -16
t-13 -52v-334q0 -40 13 -58.5t44 -18.5t43.5 18t12.5 60v124h-67v98h171v-389h-69v45q-12 -26 -34.5 -40t-56.5 -14z" />
    <glyph glyph-name="uni0122" unicode="&#x122;" horiz-adv-x="379" 
d="M189 -9q-80 0 -122 45.5t-42 120.5v343q0 36 10.5 66t31 52.5t50.5 35t69 12.5q40 0 69.5 -14.5t49.5 -39t30 -57.5t10 -71v-35h-103v51q0 68 -55 68q-29 0 -42 -16t-13 -52v-334q0 -40 13 -58.5t44 -18.5t43.5 18t12.5 60v124h-67v98h171v-389h-69v45q-12 -26 -34.5 -40
t-56.5 -14zM147 -256l36 111h-36v95h90v-95l-54 -111h-36z" />
    <glyph glyph-name="uni0123" unicode="&#x123;" horiz-adv-x="379" 
d="M189 -9q-80 0 -122 45.5t-42 120.5v343q0 36 10.5 66t31 52.5t50.5 35t69 12.5q40 0 69.5 -14.5t49.5 -39t30 -57.5t10 -71v-35h-103v51q0 68 -55 68q-29 0 -42 -16t-13 -52v-334q0 -40 13 -58.5t44 -18.5t43.5 18t12.5 60v124h-67v98h171v-389h-69v45q-12 -26 -34.5 -40
t-56.5 -14zM147 -256l36 111h-36v95h90v-95l-54 -111h-36z" />
    <glyph glyph-name="Imacron" unicode="&#x12a;" horiz-adv-x="167" 
d="M-7 677v55h181v-55h-181zM30 0v657h107v-657h-107z" />
    <glyph glyph-name="imacron" unicode="&#x12b;" horiz-adv-x="167" 
d="M-7 677v55h181v-55h-181zM30 0v657h107v-657h-107z" />
    <glyph glyph-name="Iogonek" unicode="&#x12e;" horiz-adv-x="167" 
d="M116 -181q-30 0 -51 25t-21 62q0 24 7 47.5t15 46.5h-36v657h107v-657h-30q-2 -11 -3 -22t-1 -22q0 -29 8 -50t26 -29v-53q-7 -5 -21 -5z" />
    <glyph glyph-name="iogonek" unicode="&#x12f;" horiz-adv-x="167" 
d="M116 -181q-30 0 -51 25t-21 62q0 24 7 47.5t15 46.5h-36v657h107v-657h-30q-2 -11 -3 -22t-1 -22q0 -29 8 -50t26 -29v-53q-7 -5 -21 -5z" />
    <glyph glyph-name="Idotaccent" unicode="&#x130;" horiz-adv-x="167" 
d="M36 677v55h95v-55h-95zM30 0v657h107v-657h-107z" />
    <glyph glyph-name="dotlessi" unicode="&#x131;" horiz-adv-x="386" 
d="M30 0v657h155q88 0 129 -46t40 -128q-1 -48 -19 -85t-54 -53q38 -19 61.5 -55.5t23.5 -105.5q0 -89 -43.5 -136.5t-124.5 -47.5h-168zM137 93h45q36 0 56.5 22.5t20.5 78.5q0 101 -81 101h-15v93h15q28 0 48.5 20t20.5 68q0 42 -17 65t-55 23h-38v-471z" />
    <glyph glyph-name="uni0136" unicode="&#x136;" horiz-adv-x="372" 
d="M30 0v657h107v-253l115 253h106l-121 -266l135 -391h-107l-95 277l-33 -60v-217h-107zM152 -256l36 111h-36v95h90v-95l-54 -111h-36z" />
    <glyph glyph-name="uni0137" unicode="&#x137;" horiz-adv-x="382" 
d="M40 0v657h107v-253l115 253h106l-121 -266l135 -391h-107l-95 277l-33 -60v-217h-107zM162 -256l36 111h-36v95h90v-95l-54 -111h-36z" />
    <glyph glyph-name="Lacute" unicode="&#x139;" horiz-adv-x="312" 
d="M39 677l73 55h88l-83 -55h-78zM30 0v657h107v-561h170v-96h-277z" />
    <glyph glyph-name="lacute" unicode="&#x13a;" horiz-adv-x="312" 
d="M39 677l73 55h88l-83 -55h-78zM30 0v657h107v-561h170v-96h-277z" />
    <glyph glyph-name="uni013B" unicode="&#x13b;" horiz-adv-x="312" 
d="M30 0v657h107v-561h170v-96h-277zM133 -256l36 111h-36v95h90v-95l-54 -111h-36z" />
    <glyph glyph-name="uni013C" unicode="&#x13c;" horiz-adv-x="312" 
d="M30 0v657h107v-561h170v-96h-277zM133 -256l36 111h-36v95h90v-95l-54 -111h-36z" />
    <glyph glyph-name="Lcaron" unicode="&#x13d;" horiz-adv-x="312" 
d="M30 0v657h107v-561h170v-96h-277zM187 451l36 111h-36v95h90v-95l-54 -111h-36z" />
    <glyph glyph-name="lcaron" unicode="&#x13e;" horiz-adv-x="312" 
d="M30 0v657h107v-561h170v-96h-277zM187 451l36 111h-36v95h90v-95l-54 -111h-36z" />
    <glyph glyph-name="Lslash" unicode="&#x141;" horiz-adv-x="312" 
d="M30 0v236l-40 -17v77l40 17v344h107v-297l41 18v-77l-41 -18v-187h170v-96h-277z" />
    <glyph glyph-name="lslash" unicode="&#x142;" horiz-adv-x="312" 
d="M30 0v236l-40 -17v77l40 17v344h107v-297l41 18v-77l-41 -18v-187h170v-96h-277z" />
    <glyph glyph-name="Nacute" unicode="&#x143;" 
d="M137 677l73 55h88l-83 -55h-78zM30 0v657h104l129 -366v366h95v-657h-92l-141 402v-402h-95z" />
    <glyph glyph-name="nacute" unicode="&#x144;" 
d="M137 677l73 55h88l-83 -55h-78zM30 0v657h104l129 -366v366h95v-657h-92l-141 402v-402h-95z" />
    <glyph glyph-name="uni0145" unicode="&#x145;" 
d="M30 0v657h104l129 -366v366h95v-657h-92l-141 402v-402h-95zM149 -256l36 111h-36v95h90v-95l-54 -111h-36z" />
    <glyph glyph-name="uni0146" unicode="&#x146;" 
d="M30 0v657h104l129 -366v366h95v-657h-92l-141 402v-402h-95zM149 -256l36 111h-36v95h90v-95l-54 -111h-36z" />
    <glyph glyph-name="Ncaron" unicode="&#x147;" 
d="M143 677l-73 55h78l46 -30l46 30h78l-73 -55h-102zM30 0v657h104l129 -366v366h95v-657h-92l-141 402v-402h-95z" />
    <glyph glyph-name="ncaron" unicode="&#x148;" 
d="M143 677l-73 55h78l46 -30l46 30h78l-73 -55h-102zM30 0v657h104l129 -366v366h95v-657h-92l-141 402v-402h-95z" />
    <glyph glyph-name="Omacron" unicode="&#x14c;" horiz-adv-x="378" 
d="M99 677v55h180v-55h-180zM189 -10q-40 0 -70.5 13t-51.5 35.5t-31.5 53t-10.5 64.5v345q0 35 10.5 65t31.5 52.5t51.5 35.5t70.5 13t70.5 -13t51.5 -35.5t31.5 -52.5t10.5 -65v-345q0 -34 -10.5 -64.5t-31.5 -53t-51.5 -35.5t-70.5 -13zM189 88q31 0 44 18t13 50v345
q0 32 -13 50t-44 18t-44 -17.5t-13 -50.5v-345q0 -33 13 -50.5t44 -17.5z" />
    <glyph glyph-name="omacron" unicode="&#x14d;" horiz-adv-x="378" 
d="M99 677v55h180v-55h-180zM189 -9q-40 0 -70.5 13t-51.5 35.5t-31.5 53t-10.5 64.5v343q0 35 10.5 65t31.5 52.5t51.5 35.5t70.5 13t70.5 -13t51.5 -35.5t31.5 -52.5t10.5 -65v-343q0 -34 -10.5 -64.5t-31.5 -53t-51.5 -35.5t-70.5 -13zM189 89q31 0 44 18t13 50v343
q0 32 -13 50t-44 18t-44 -17.5t-13 -50.5v-343q0 -33 13 -50.5t44 -17.5z" />
    <glyph glyph-name="Ohungarumlaut" unicode="&#x150;" horiz-adv-x="378" 
d="M51 677l73 55h88l-83 -55h-78zM187 677l73 55h88l-83 -55h-78zM189 -9q-40 0 -70.5 13t-51.5 35.5t-31.5 53t-10.5 64.5v343q0 35 10.5 65t31.5 52.5t51.5 35.5t70.5 13t70.5 -13t51.5 -35.5t31.5 -52.5t10.5 -65v-343q0 -34 -10.5 -64.5t-31.5 -53t-51.5 -35.5
t-70.5 -13zM189 89q31 0 44 18t13 50v343q0 32 -13 50t-44 18t-44 -17.5t-13 -50.5v-343q0 -33 13 -50.5t44 -17.5z" />
    <glyph glyph-name="ohungarumlaut" unicode="&#x151;" horiz-adv-x="378" 
d="M51 677l73 55h88l-83 -55h-78zM187 677l73 55h88l-83 -55h-78zM189 -9q-40 0 -70.5 13t-51.5 35.5t-31.5 53t-10.5 64.5v343q0 35 10.5 65t31.5 52.5t51.5 35.5t70.5 13t70.5 -13t51.5 -35.5t31.5 -52.5t10.5 -65v-343q0 -34 -10.5 -64.5t-31.5 -53t-51.5 -35.5
t-70.5 -13zM189 89q31 0 44 18t13 50v343q0 32 -13 50t-44 18t-44 -17.5t-13 -50.5v-343q0 -33 13 -50.5t44 -17.5z" />
    <glyph glyph-name="OE" unicode="&#x152;" horiz-adv-x="559" 
d="M199 0q-88 0 -131.5 46t-42.5 128v299q0 89 46 136.5t127 47.5h333v-97h-177v-171h146v-98h-146v-195h190v-96h-345zM247 93v471h-38q-36 0 -57 -22.5t-21 -78.5v-282q0 -42 17.5 -65t55.5 -23h43z" />
    <glyph glyph-name="oe" unicode="&#x153;" horiz-adv-x="559" 
d="M199 0q-88 0 -131.5 46t-42.5 128v299q0 89 46 136.5t127 47.5h333v-97h-177v-171h146v-98h-146v-195h190v-96h-345zM247 93v471h-38q-36 0 -57 -22.5t-21 -78.5v-282q0 -42 17.5 -65t55.5 -23h43z" />
    <glyph glyph-name="Racute" unicode="&#x154;" horiz-adv-x="380" 
d="M105 677l73 55h88l-83 -55h-78zM30 0v657h151q50 0 84 -13.5t55.5 -39t31 -62t9.5 -81.5q0 -25 -3.5 -50.5t-12.5 -47.5t-24 -39t-38 -26l92 -298h-107l-78 269h-53v-269h-107zM137 361h39q41 0 60.5 22.5t19.5 79.5q0 32 -6 52t-18 31t-29 15t-39 4h-27v-204z" />
    <glyph glyph-name="racute" unicode="&#x155;" horiz-adv-x="375" 
d="M105 677l73 55h88l-83 -55h-78zM30 0v657h151q50 0 84 -13.5t55.5 -39t31 -62t9.5 -81.5q0 -25 -3.5 -50.5t-12.5 -47.5t-24 -39t-38 -26l92 -298h-107l-78 269h-53v-269h-107zM137 361h39q41 0 60.5 22.5t19.5 79.5q0 32 -6 52t-18 31t-29 15t-39 4h-27v-204z" />
    <glyph glyph-name="uni0156" unicode="&#x156;" horiz-adv-x="380" 
d="M30 0v657h151q50 0 84 -13.5t55.5 -39t31 -62t9.5 -81.5q0 -25 -3.5 -50.5t-12.5 -47.5t-24 -39t-38 -26l92 -298h-107l-78 269h-53v-269h-107zM137 361h39q41 0 60.5 22.5t19.5 79.5q0 32 -6 52t-18 31t-29 15t-39 4h-27v-204zM152 -256l36 111h-36v95h90v-95l-54 -111
h-36z" />
    <glyph glyph-name="uni0157" unicode="&#x157;" horiz-adv-x="375" 
d="M30 0v657h151q50 0 84 -13.5t55.5 -39t31 -62t9.5 -81.5q0 -25 -3.5 -50.5t-12.5 -47.5t-24 -39t-38 -26l92 -298h-107l-78 269h-53v-269h-107zM137 361h39q41 0 60.5 22.5t19.5 79.5q0 32 -6 52t-18 31t-29 15t-39 4h-27v-204zM152 -256l36 111h-36v95h90v-95l-54 -111
h-36z" />
    <glyph glyph-name="Rcaron" unicode="&#x158;" horiz-adv-x="380" 
d="M135 677l-73 55h78l46 -30l46 30h78l-73 -55h-102zM30 0v657h151q50 0 84 -13.5t55.5 -39t31 -62t9.5 -81.5q0 -25 -3.5 -50.5t-12.5 -47.5t-24 -39t-38 -26l92 -298h-107l-78 269h-53v-269h-107zM137 361h39q41 0 60.5 22.5t19.5 79.5q0 32 -6 52t-18 31t-29 15t-39 4
h-27v-204z" />
    <glyph glyph-name="rcaron" unicode="&#x159;" horiz-adv-x="375" 
d="M135 677l-73 55h78l46 -30l46 30h78l-73 -55h-102zM30 0v657h151q50 0 84 -13.5t55.5 -39t31 -62t9.5 -81.5q0 -25 -3.5 -50.5t-12.5 -47.5t-24 -39t-38 -26l92 -298h-107l-78 269h-53v-269h-107zM137 361h39q41 0 60.5 22.5t19.5 79.5q0 32 -6 52t-18 31t-29 15t-39 4
h-27v-204z" />
    <glyph glyph-name="Sacute" unicode="&#x15a;" horiz-adv-x="345" 
d="M106 677l73 55h88l-83 -55h-78zM171 -9q-80 0 -119.5 48t-39.5 128v26h107v-26q0 -78 57 -78q27 0 40 15.5t13 44.5q0 32 -16 56.5t-39.5 47t-51.5 45t-51.5 51t-39.5 65t-16 86.5q0 35 10.5 65t31 52.5t50.5 35.5t69 13q73 0 113.5 -45.5t40.5 -120.5v-21h-102v21
q0 32 -13 50t-39 18q-29 0 -41 -16.5t-12 -48.5q0 -27 15.5 -50t39 -46t50.5 -47.5t50.5 -53.5t39 -65t15.5 -82q0 -34 -10.5 -65t-31 -53.5t-50.5 -36t-70 -13.5z" />
    <glyph glyph-name="sacute" unicode="&#x15b;" horiz-adv-x="345" 
d="M106 677l73 55h88l-83 -55h-78zM171 -9q-80 0 -119.5 48t-39.5 128v26h107v-26q0 -78 57 -78q27 0 40 15.5t13 44.5q0 32 -16 56.5t-39.5 47t-51.5 45t-51.5 51t-39.5 65t-16 86.5q0 35 10.5 65t31 52.5t50.5 35.5t69 13q73 0 113.5 -45.5t40.5 -120.5v-21h-102v21
q0 32 -13 50t-39 18q-29 0 -41 -16.5t-12 -48.5q0 -27 15.5 -50t39 -46t50.5 -47.5t50.5 -53.5t39 -65t15.5 -82q0 -34 -10.5 -65t-31 -53.5t-50.5 -36t-70 -13.5z" />
    <glyph glyph-name="Scedilla" unicode="&#x15e;" horiz-adv-x="345" 
d="M163 -200q-21 0 -36 3l11 47q57 0 57 37q0 14 -10.5 25t-34.5 13v67q-69 7 -103.5 53.5t-34.5 121.5v26h107v-26q0 -78 57 -78q27 0 40 15.5t13 44.5q0 32 -16 56.5t-39.5 47t-51.5 45t-51.5 51t-39.5 65t-16 86.5q0 35 10.5 65t31 52.5t50.5 35.5t69 13
q73 0 113.5 -45.5t40.5 -120.5v-21h-102v21q0 32 -13 50t-39 18q-29 0 -41 -16.5t-12 -48.5q0 -27 15.5 -50t39 -46t50.5 -47.5t50.5 -53.5t39 -65t15.5 -82q0 -32 -9 -61t-27 -51.5t-44.5 -37t-61.5 -17.5v-33q33 -5 52 -26t19 -50q0 -35 -28.5 -59t-70.5 -24z" />
    <glyph glyph-name="scedilla" unicode="&#x15f;" horiz-adv-x="345" 
d="M163 -200q-21 0 -36 3l11 47q57 0 57 37q0 14 -10.5 25t-34.5 13v67q-69 7 -103.5 53.5t-34.5 121.5v26h107v-26q0 -78 57 -78q27 0 40 15.5t13 44.5q0 32 -16 56.5t-39.5 47t-51.5 45t-51.5 51t-39.5 65t-16 86.5q0 35 10.5 65t31 52.5t50.5 35.5t69 13
q73 0 113.5 -45.5t40.5 -120.5v-21h-102v21q0 32 -13 50t-39 18q-29 0 -41 -16.5t-12 -48.5q0 -27 15.5 -50t39 -46t50.5 -47.5t50.5 -53.5t39 -65t15.5 -82q0 -32 -9 -61t-27 -51.5t-44.5 -37t-61.5 -17.5v-33q33 -5 52 -26t19 -50q0 -35 -28.5 -59t-70.5 -24z" />
    <glyph glyph-name="Scaron" unicode="&#x160;" horiz-adv-x="345" 
d="M120 677l-73 55h78l46 -30l46 30h78l-73 -55h-102zM171 -9q-80 0 -119.5 48t-39.5 128v26h107v-26q0 -78 57 -78q27 0 40 15.5t13 44.5q0 32 -16 56.5t-39.5 47t-51.5 45t-51.5 51t-39.5 65t-16 86.5q0 35 10.5 65t31 52.5t50.5 35.5t69 13q73 0 113.5 -45.5t40.5 -120.5
v-21h-102v21q0 32 -13 50t-39 18q-29 0 -41 -16.5t-12 -48.5q0 -27 15.5 -50t39 -46t50.5 -47.5t50.5 -53.5t39 -65t15.5 -82q0 -34 -10.5 -65t-31 -53.5t-50.5 -36t-70 -13.5z" />
    <glyph glyph-name="scaron" unicode="&#x161;" horiz-adv-x="345" 
d="M120 677l-73 55h78l46 -30l46 30h78l-73 -55h-102zM171 -9q-80 0 -119.5 48t-39.5 128v26h107v-26q0 -78 57 -78q27 0 40 15.5t13 44.5q0 32 -16 56.5t-39.5 47t-51.5 45t-51.5 51t-39.5 65t-16 86.5q0 35 10.5 65t31 52.5t50.5 35.5t69 13q73 0 113.5 -45.5t40.5 -120.5
v-21h-102v21q0 32 -13 50t-39 18q-29 0 -41 -16.5t-12 -48.5q0 -27 15.5 -50t39 -46t50.5 -47.5t50.5 -53.5t39 -65t15.5 -82q0 -34 -10.5 -65t-31 -53.5t-50.5 -36t-70 -13.5z" />
    <glyph glyph-name="Tcaron" unicode="&#x164;" horiz-adv-x="320" 
d="M109 677l-73 55h78l46 -30l46 30h78l-73 -55h-102zM107 0v561h-102v96h310v-96h-101v-561h-107z" />
    <glyph glyph-name="tcaron" unicode="&#x165;" horiz-adv-x="320" 
d="M109 677l-73 55h78l46 -30l46 30h78l-73 -55h-102zM107 0v561h-102v96h310v-96h-101v-561h-107z" />
    <glyph glyph-name="Umacron" unicode="&#x16a;" 
d="M104 677v55h180v-55h-180zM194 -9q-40 0 -70.5 13t-51.5 35.5t-31.5 53t-10.5 64.5v500h107v-500q0 -33 13 -50.5t44 -17.5t44 18t13 50v500h107v-500q0 -34 -10.5 -64.5t-31.5 -53t-51.5 -35.5t-70.5 -13z" />
    <glyph glyph-name="umacron" unicode="&#x16b;" 
d="M104 677v55h180v-55h-180zM194 -9q-40 0 -70.5 13t-51.5 35.5t-31.5 53t-10.5 64.5v500h107v-500q0 -33 13 -50.5t44 -17.5t44 18t13 50v500h107v-500q0 -34 -10.5 -64.5t-31.5 -53t-51.5 -35.5t-70.5 -13z" />
    <glyph glyph-name="Uring" unicode="&#x16e;" 
d="M194 666q-42 0 -71.5 17.5t-29.5 42.5t29.5 42.5t71.5 17.5t71.5 -17.5t29.5 -42.5t-29.5 -42.5t-71.5 -17.5zM194 696q28 0 40.5 9.5t12.5 20.5t-12.5 20.5t-40.5 9.5t-40.5 -9.5t-12.5 -20.5t12.5 -20.5t40.5 -9.5zM194 -9q-40 0 -70.5 13t-51.5 35.5t-31.5 53
t-10.5 64.5v500h107v-500q0 -33 13 -50.5t44 -17.5t44 18t13 50v500h107v-500q0 -34 -10.5 -64.5t-31.5 -53t-51.5 -35.5t-70.5 -13z" />
    <glyph glyph-name="uring" unicode="&#x16f;" 
d="M194 666q-42 0 -71.5 17.5t-29.5 42.5t29.5 42.5t71.5 17.5t71.5 -17.5t29.5 -42.5t-29.5 -42.5t-71.5 -17.5zM194 696q28 0 40.5 9.5t12.5 20.5t-12.5 20.5t-40.5 9.5t-40.5 -9.5t-12.5 -20.5t12.5 -20.5t40.5 -9.5zM194 -9q-40 0 -70.5 13t-51.5 35.5t-31.5 53
t-10.5 64.5v500h107v-500q0 -33 13 -50.5t44 -17.5t44 18t13 50v500h107v-500q0 -34 -10.5 -64.5t-31.5 -53t-51.5 -35.5t-70.5 -13z" />
    <glyph glyph-name="Uhungarumlaut" unicode="&#x170;" 
d="M45 677l73 55h88l-83 -55h-78zM181 677l73 55h88l-83 -55h-78zM194 -9q-40 0 -70.5 13t-51.5 35.5t-31.5 53t-10.5 64.5v500h107v-500q0 -33 13 -50.5t44 -17.5t44 18t13 50v500h107v-500q0 -34 -10.5 -64.5t-31.5 -53t-51.5 -35.5t-70.5 -13z" />
    <glyph glyph-name="uhungarumlaut" unicode="&#x171;" 
d="M45 677l73 55h88l-83 -55h-78zM181 677l73 55h88l-83 -55h-78zM194 -9q-40 0 -70.5 13t-51.5 35.5t-31.5 53t-10.5 64.5v500h107v-500q0 -33 13 -50.5t44 -17.5t44 18t13 50v500h107v-500q0 -34 -10.5 -64.5t-31.5 -53t-51.5 -35.5t-70.5 -13z" />
    <glyph glyph-name="Uogonek" unicode="&#x172;" 
d="M226 -181q-30 0 -51 25t-21 62q0 23 5.5 44t13.5 42q-35 3 -61.5 17.5t-44.5 36.5t-27.5 50.5t-9.5 60.5v500h107v-500q0 -33 13 -50.5t44 -17.5t44 18t13 50v500h107v-500q0 -32 -9.5 -60.5t-27.5 -50.5t-44.5 -36.5t-61.5 -17.5q-2 -9 -2 -18v-18q0 -29 8 -50t26 -29
v-53q-7 -5 -21 -5z" />
    <glyph glyph-name="uogonek" unicode="&#x173;" 
d="M226 -181q-30 0 -51 25t-21 62q0 23 5.5 44t13.5 42q-35 3 -61.5 17.5t-44.5 36.5t-27.5 50.5t-9.5 60.5v500h107v-500q0 -33 13 -50.5t44 -17.5t44 18t13 50v500h107v-500q0 -32 -9.5 -60.5t-27.5 -50.5t-44.5 -36.5t-61.5 -17.5q-2 -9 -2 -18v-18q0 -29 8 -50t26 -29
v-53q-7 -5 -21 -5z" />
    <glyph glyph-name="Ydieresis" unicode="&#x178;" horiz-adv-x="360" 
d="M60 677v55h95v-55h-95zM205 677v55h95v-55h-95zM126 0v264l-126 393h107l75 -271l71 271h107l-127 -396v-261h-107z" />
    <glyph glyph-name="Zacute" unicode="&#x179;" horiz-adv-x="323" 
d="M112 677l73 55h88l-83 -55h-78zM10 0v97l197 463h-178v97h284v-97l-197 -463h194v-97h-300z" />
    <glyph glyph-name="zacute" unicode="&#x17a;" horiz-adv-x="323" 
d="M112 677l73 55h88l-83 -55h-78zM10 0v97l197 463h-178v97h284v-97l-197 -463h194v-97h-300z" />
    <glyph glyph-name="Zdotaccent" unicode="&#x17b;" horiz-adv-x="323" 
d="M114 677v55h95v-55h-95zM10 0v97l197 463h-178v97h284v-97l-197 -463h194v-97h-300z" />
    <glyph glyph-name="zdotaccent" unicode="&#x17c;" horiz-adv-x="323" 
d="M114 677v55h95v-55h-95zM10 0v97l197 463h-178v97h284v-97l-197 -463h194v-97h-300z" />
    <glyph glyph-name="Zcaron" unicode="&#x17d;" horiz-adv-x="323" 
d="M110 677l-73 55h78l46 -30l46 30h78l-73 -55h-102zM10 0v97l197 463h-178v97h284v-97l-197 -463h194v-97h-300z" />
    <glyph glyph-name="zcaron" unicode="&#x17e;" horiz-adv-x="323" 
d="M110 677l-73 55h78l46 -30l46 30h78l-73 -55h-102zM10 0v97l197 463h-178v97h284v-97l-197 -463h194v-97h-300z" />
    <glyph glyph-name="florin" unicode="&#x192;" horiz-adv-x="209" 
d="M54 339v111h106v-111h-106z" />
    <glyph glyph-name="uni0218" unicode="&#x218;" horiz-adv-x="345" 
d="M171 -9q-80 0 -119.5 48t-39.5 128v26h107v-26q0 -78 57 -78q27 0 40 15.5t13 44.5q0 32 -16 56.5t-39.5 47t-51.5 45t-51.5 51t-39.5 65t-16 86.5q0 35 10.5 65t31 52.5t50.5 35.5t69 13q73 0 113.5 -45.5t40.5 -120.5v-21h-102v21q0 32 -13 50t-39 18q-29 0 -41 -16.5
t-12 -48.5q0 -27 15.5 -50t39 -46t50.5 -47.5t50.5 -53.5t39 -65t15.5 -82q0 -34 -10.5 -65t-31 -53.5t-50.5 -36t-70 -13.5zM125 -256l36 111h-36v95h90v-95l-54 -111h-36z" />
    <glyph glyph-name="uni0219" unicode="&#x219;" horiz-adv-x="345" 
d="M171 -9q-80 0 -119.5 48t-39.5 128v26h107v-26q0 -78 57 -78q27 0 40 15.5t13 44.5q0 32 -16 56.5t-39.5 47t-51.5 45t-51.5 51t-39.5 65t-16 86.5q0 35 10.5 65t31 52.5t50.5 35.5t69 13q73 0 113.5 -45.5t40.5 -120.5v-21h-102v21q0 32 -13 50t-39 18q-29 0 -41 -16.5
t-12 -48.5q0 -27 15.5 -50t39 -46t50.5 -47.5t50.5 -53.5t39 -65t15.5 -82q0 -34 -10.5 -65t-31 -53.5t-50.5 -36t-70 -13.5zM125 -256l36 111h-36v95h90v-95l-54 -111h-36z" />
    <glyph glyph-name="uni021A" unicode="&#x21a;" horiz-adv-x="320" 
d="M107 0v561h-102v96h310v-96h-101v-561h-107zM116 -256l36 111h-36v95h90v-95l-54 -111h-36z" />
    <glyph glyph-name="uni021B" unicode="&#x21b;" horiz-adv-x="320" 
d="M107 0v561h-102v96h310v-96h-101v-561h-107zM116 -256l36 111h-36v95h90v-95l-54 -111h-36z" />
    <glyph glyph-name="circumflex" unicode="&#x2c6;" horiz-adv-x="248" 
d="M0 550l73 55h102l73 -55h-78l-46 30l-46 -30h-78z" />
    <glyph glyph-name="caron" unicode="&#x2c7;" horiz-adv-x="248" 
d="M73 549l-73 55h78l46 -30l46 30h78l-73 -55h-102z" />
    <glyph glyph-name="breve" unicode="&#x2d8;" horiz-adv-x="248" 
d="M124 550q-56 0 -83 16.5t-41 38.5h53q21 -18 71 -18q53 0 71 18h53q-14 -22 -41 -38.5t-83 -16.5z" />
    <glyph glyph-name="dotaccent" unicode="&#x2d9;" horiz-adv-x="95" 
d="M0 550v55h95v-55h-95z" />
    <glyph glyph-name="ring" unicode="&#x2da;" horiz-adv-x="372" 
d="M30 0v657h107v-657h-107zM264 0l-119 374l118 283h103l-119 -285l125 -372h-108z" />
    <glyph glyph-name="ogonek" unicode="&#x2db;" horiz-adv-x="93" 
d="M72 -181q-30 0 -51 25t-21 62q0 24 7 47.5t15 46.5h41q-2 -11 -3 -22t-1 -22q0 -29 8 -50t26 -29v-53q-7 -5 -21 -5z" />
    <glyph glyph-name="tilde" unicode="&#x2dc;" horiz-adv-x="257" 
d="M0 550q6 23 22 39t58 16q31 0 55 -8t51 -8q25 0 35 16h36q-6 -25 -21.5 -40t-58.5 -15q-26 0 -52.5 8t-53.5 8q-11 0 -21 -4t-14 -12h-36z" />
    <glyph glyph-name="hungarumlaut" unicode="&#x2dd;" horiz-adv-x="297" 
d="M0 550l73 55h88l-83 -55h-78zM136 550l73 55h88l-83 -55h-78z" />
    <glyph glyph-name="uni03A9" unicode="&#x3a9;" 
d="M15 -9v105h60q-12 5 -21 17t-14 28t-7.5 33t-2.5 33v293q0 35 10.5 65t31.5 52.5t51.5 35.5t70.5 13t70.5 -13t51.5 -35.5t31.5 -52.5t10.5 -65v-293q0 -15 -2 -32t-7.5 -32.5t-14 -28t-20.5 -18.5h59v-105h-152v60q17 4 23.5 25t6.5 50v374q0 32 -13 50t-44 18
t-44 -17.5t-13 -50.5v-374q0 -29 6.5 -49.5t23.5 -25.5v-60h-152z" />
    <glyph glyph-name="pi" unicode="&#x3c0;" horiz-adv-x="387" 
d="M30 0v657h154q99 0 146 -44.5t47 -149.5t-50.5 -151t-143.5 -46h-20v94h20q51 0 69.5 22t18.5 81t-20 80t-73 21h-41v-564h-107z" />
    <glyph glyph-name="omega" unicode="&#x3c9;" 
d="M15 -9v105h60q-12 5 -21 17t-14 28t-7.5 33t-2.5 33v293q0 35 10.5 65t31.5 52.5t51.5 35.5t70.5 13t70.5 -13t51.5 -35.5t31.5 -52.5t10.5 -65v-293q0 -15 -2 -32t-7.5 -32.5t-14 -28t-20.5 -18.5h59v-105h-152v60q17 4 23.5 25t6.5 50v374q0 32 -13 50t-44 18
t-44 -17.5t-13 -50.5v-374q0 -29 6.5 -49.5t23.5 -25.5v-60h-152z" />
    <glyph glyph-name="uni0406" unicode="&#x406;" horiz-adv-x="187" 
d="M40 0v657h107v-657h-107z" />
    <glyph glyph-name="uni0406" unicode="&#x456;" horiz-adv-x="187" 
d="M40 0v657h107v-657h-107z" />
    <glyph glyph-name="endash" unicode="&#x2013;" horiz-adv-x="358" 
d="M15 219v87h328v-87h-328z" />
    <glyph glyph-name="emdash" unicode="&#x2014;" horiz-adv-x="472" 
d="M15 211v87h442v-87h-442z" />
    <glyph glyph-name="quoteleft" unicode="&#x2018;" horiz-adv-x="160" 
d="M35 452v94l54 111h36l-36 -111h36v-94h-90z" />
    <glyph glyph-name="quoteright" unicode="&#x2019;" horiz-adv-x="160" 
d="M35 452l36 111h-36v94h90v-94l-54 -111h-36z" />
    <glyph glyph-name="quotesinglbase" unicode="&#x201a;" horiz-adv-x="160" 
d="M35 -111l36 111h-36v94h90v-94l-54 -111h-36z" />
    <glyph glyph-name="quotedblleft" unicode="&#x201c;" horiz-adv-x="280" 
d="M35 452v94l54 111h36l-36 -111h36v-94h-90zM155 452v94l54 111h36l-36 -111h36v-94h-90z" />
    <glyph glyph-name="quotedblright" unicode="&#x201d;" horiz-adv-x="280" 
d="M35 452l36 111h-36v94h90v-94l-54 -111h-36zM155 452l36 111h-36v94h90v-94l-54 -111h-36z" />
    <glyph glyph-name="quotedblbase" unicode="&#x201e;" horiz-adv-x="280" 
d="M35 -111l36 111h-36v94h90v-94l-54 -111h-36zM155 -111l36 111h-36v94h90v-94l-54 -111h-36z" />
    <glyph glyph-name="dagger" unicode="&#x2020;" horiz-adv-x="415" 
d="M163 0v402h-128v87h128v149h87v-149h130v-87h-130v-402h-87z" />
    <glyph glyph-name="daggerdbl" unicode="&#x2021;" horiz-adv-x="415" 
d="M163 0v149h-128v87h128v166h-128v87h128v149h87v-149h130v-87h-130v-166h130v-87h-130v-149h-87z" />
    <glyph glyph-name="bullet" unicode="&#x2022;" horiz-adv-x="288" 
d="M144 205q-22 0 -42 8.5t-35 23.5t-23.5 35t-8.5 42q0 23 8.5 42.5t23.5 34.5t35 23.5t42 8.5q23 0 42.5 -8.5t34.5 -23.5t23.5 -34.5t8.5 -42.5q0 -22 -8.5 -42t-23.5 -35t-34.5 -23.5t-42.5 -8.5z" />
    <glyph glyph-name="ellipsis" unicode="&#x2026;" horiz-adv-x="176" 
d="M35 339v111h106v-111h-106zM35 -130l42 130h-42v111h106v-111l-64 -130h-42z" />
    <glyph glyph-name="perthousand" unicode="&#x2030;" horiz-adv-x="965" 
d="M158 322q-60 0 -91.5 34.5t-31.5 105.5v64q0 71 31.5 105.5t91.5 34.5t91.5 -35t31.5 -105v-64q0 -70 -31.5 -105t-91.5 -35zM131 0l330 657h87l-330 -657h-87zM158 394q19 0 29.5 12t10.5 40v96q0 28 -10.5 40t-29.5 12t-29.5 -12t-10.5 -40v-96q0 -28 10.5 -40
t29.5 -12zM520 -9q-60 0 -91.5 34.5t-31.5 105.5v64q0 71 31.5 105.5t91.5 34.5t91.5 -35t31.5 -105v-64q0 -70 -31.5 -105t-91.5 -35zM807 -9q-60 0 -91.5 34.5t-31.5 105.5v64q0 71 31.5 105.5t91.5 34.5t91.5 -35t31.5 -105v-64q0 -70 -31.5 -105t-91.5 -35zM520 63
q19 0 29.5 12t10.5 40v96q0 28 -10.5 40t-29.5 12t-29.5 -12t-10.5 -40v-96q0 -28 10.5 -40t29.5 -12zM807 63q19 0 29.5 12t10.5 40v96q0 28 -10.5 40t-29.5 12t-29.5 -12t-10.5 -40v-96q0 -28 10.5 -40t29.5 -12z" />
    <glyph glyph-name="guilsinglleft" unicode="&#x2039;" horiz-adv-x="243" 
d="M208 10l-173 193v46l172 192v-118l-91 -98l92 -99v-116z" />
    <glyph glyph-name="guilsinglright" unicode="&#x203a;" horiz-adv-x="243" 
d="M35 10v116l92 99l-91 98v118l172 -192v-46z" />
    <glyph glyph-name="fraction" unicode="&#x2044;" horiz-adv-x="177" 
d="M0 0l100 657h77l-100 -657h-77z" />
    <glyph glyph-name="Euro" unicode="&#x20ac;" horiz-adv-x="359" 
d="M192 -9q-75 0 -113.5 42.5t-38.5 130.5v78h-40v68h40v43h-40v68h40v72q0 88 38.5 130.5t113.5 42.5q74 0 108 -43t34 -131h-92v21q0 34 -13.5 49t-36.5 15t-36.5 -15t-13.5 -49v-92h126l-30 -68h-96v-43h81l-30 -68h-51v-98q0 -34 13.5 -49t36.5 -15t36.5 15t13.5 49v13
h92q-2 -83 -36 -124.5t-106 -41.5z" />
    <glyph glyph-name="trademark" unicode="&#x2122;" horiz-adv-x="506" 
d="M69 296v300h-54v61h175v-61h-53v-300h-68zM225 296v361h82l41 -196l40 196h83v-361h-63v197l-42 -197h-37l-41 197v-197h-63z" />
    <glyph glyph-name="partialdiff" unicode="&#x2202;" horiz-adv-x="209" 
d="M54 339v111h106v-111h-106z" />
    <glyph glyph-name="uni2206" unicode="&#x2206;" horiz-adv-x="209" 
d="M54 339v111h106v-111h-106z" />
    <glyph glyph-name="product" unicode="&#x220f;" horiz-adv-x="387" 
d="M30 0v657h154q99 0 146 -44.5t47 -149.5t-50.5 -151t-143.5 -46h-20v94h20q51 0 69.5 22t18.5 81t-20 80t-73 21h-41v-564h-107z" />
    <glyph glyph-name="summation" unicode="&#x2211;" horiz-adv-x="209" 
d="M54 339v111h106v-111h-106z" />
    <glyph glyph-name="minus" unicode="&#x2212;" horiz-adv-x="455" 
d="M35 178v87h385v-87h-385z" />
    <glyph glyph-name="radical" unicode="&#x221a;" horiz-adv-x="209" 
d="M54 339v111h106v-111h-106z" />
    <glyph glyph-name="infinity" unicode="&#x221e;" horiz-adv-x="209" 
d="M54 339v111h106v-111h-106z" />
    <glyph glyph-name="integral" unicode="&#x222b;" horiz-adv-x="386" 
d="M30 0v657h155q88 0 129 -46t40 -128q-1 -48 -19 -85t-54 -53q38 -19 61.5 -55.5t23.5 -105.5q0 -89 -43.5 -136.5t-124.5 -47.5h-168zM137 93h45q36 0 56.5 22.5t20.5 78.5q0 101 -81 101h-15v93h15q28 0 48.5 20t20.5 68q0 42 -17 65t-55 23h-38v-471z" />
    <glyph glyph-name="approxequal" unicode="&#x2248;" horiz-adv-x="209" 
d="M54 339v111h106v-111h-106z" />
    <glyph glyph-name="notequal" unicode="&#x2260;" horiz-adv-x="455" 
d="M35 0l68 112h-68v87h120l38 63h-158v87h211l77 126h97l-77 -126h77v-87h-130l-38 -63h168v-87h-220l-68 -112h-97z" />
    <glyph glyph-name="lessequal" unicode="&#x2264;" horiz-adv-x="176" 
d="M35 -130l42 130h-42v111h106v-111l-64 -130h-42z" />
    <glyph glyph-name="greaterequal" unicode="&#x2265;" horiz-adv-x="176" 
d="M35 -130l42 130h-42v111h106v-111l-64 -130h-42z" />
    <glyph glyph-name="lozenge" unicode="&#x25ca;" horiz-adv-x="209" 
d="M54 339v111h106v-111h-106z" />
    <glyph glyph-name="uniF6C3" unicode="&#xf6c3;" horiz-adv-x="0" 
d="M-124 -256l36 111h-36v95h90v-95l-54 -111h-36z" />
    <glyph glyph-name="uniF8FF" unicode="&#xf8ff;" horiz-adv-x="372" 
d="M30 0v657h107v-657h-107zM264 0l-119 374l118 283h103l-119 -285l125 -372h-108z" />
    <glyph glyph-name="fi" unicode="&#xfb01;" horiz-adv-x="498" 
d="M30 0v657h296v-97h-189v-168h151v-98h-151v-294h-107zM361 0v657h107v-657h-107z" />
    <glyph glyph-name="fl" unicode="&#xfb02;" horiz-adv-x="643" 
d="M30 0v657h296v-97h-189v-168h151v-98h-151v-294h-107zM361 0v657h107v-561h170v-96h-277z" />
    <glyph glyph-name="A.alt" horiz-adv-x="362" 
d="M181 666q-42 0 -71.5 17.5t-29.5 42.5t29.5 42.5t71.5 17.5t71.5 -17.5t29.5 -42.5t-29.5 -42.5t-71.5 -17.5zM181 696q28 0 40.5 9.5t12.5 20.5t-12.5 20.5t-40.5 9.5t-40.5 -9.5t-12.5 -20.5t12.5 -20.5t40.5 -9.5zM0 0l120 657h122l120 -657h-101l-79 526l-78 -526
h-104z" />
    <glyph glyph-name="a.alt" horiz-adv-x="362" 
d="M181 666q-42 0 -71.5 17.5t-29.5 42.5t29.5 42.5t71.5 17.5t71.5 -17.5t29.5 -42.5t-29.5 -42.5t-71.5 -17.5zM181 696q28 0 40.5 9.5t12.5 20.5t-12.5 20.5t-40.5 9.5t-40.5 -9.5t-12.5 -20.5t12.5 -20.5t40.5 -9.5zM0 0l120 657h122l120 -657h-101l-79 526l-78 -526
h-104z" />
    </font>
</defs>
</svg>
